<?xml version="1.0" encoding="UTF-8" standalone="no"?>
<!-- Created with Inkscape (http://www.inkscape.org/) -->

<svg
   width="850"
   height="530"
   viewBox="0 0 224.89583 140.22917"
   version="1.1"
   id="svg5"
   inkscape:version="1.2.2 (732a01da63, 2022-12-09, custom)"
   sodipodi:docname="illustration.svg"
   xml:space="preserve"
   xmlns:inkscape="http://www.inkscape.org/namespaces/inkscape"
   xmlns:sodipodi="http://sodipodi.sourceforge.net/DTD/sodipodi-0.dtd"
   xmlns="http://www.w3.org/2000/svg"
   xmlns:svg="http://www.w3.org/2000/svg"><sodipodi:namedview
     id="namedview7"
     pagecolor="#ffffff"
     bordercolor="#000000"
     borderopacity="0.25"
     inkscape:showpageshadow="2"
     inkscape:pageopacity="0.0"
     inkscape:pagecheckerboard="0"
     inkscape:deskcolor="#d1d1d1"
     inkscape:document-units="mm"
     showgrid="false"
     inkscape:zoom="1.1698571"
     inkscape:cx="379.53353"
     inkscape:cy="348.33314"
     inkscape:window-width="1920"
     inkscape:window-height="1016"
     inkscape:window-x="0"
     inkscape:window-y="0"
     inkscape:window-maximized="1"
     inkscape:current-layer="layer1" /><defs
     id="defs2"><rect
       x="359.0222"
       y="109.13264"
       width="297.93924"
       height="313.59997"
       id="rect1028" /></defs><g
     inkscape:label="Layer 1"
     inkscape:groupmode="layer"
     id="layer1"><ellipse
       style="fill:none;stroke:#000000;stroke-width:1.1153;stroke-dasharray:none;stroke-opacity:1"
       id="path283"
       cx="549.89099"
       cy="54.058064"
       rx="39.904095"
       ry="47.650105"
       transform="matrix(1,0,-0.23920831,0.97096827,0,0)" /><ellipse
       style="fill:none;stroke:#000000;stroke-width:1.1153;stroke-dasharray:none;stroke-opacity:1"
       id="path283-35"
       cx="356.41068"
       cy="55.455299"
       rx="39.904095"
       ry="47.650105"
       transform="matrix(1,0,-0.23920831,0.97096827,0,0)" /><ellipse
       style="fill:none;stroke:#000000;stroke-width:1.1153;stroke-dasharray:none;stroke-opacity:1"
       id="path283-3"
       cx="555.92804"
       cy="56.397251"
       rx="39.904095"
       ry="47.650105"
       transform="matrix(1,0,-0.23920831,0.97096827,0,0)" /><text
       xml:space="preserve"
       transform="scale(0.26458333)"
       id="text1026"
       style="font-size:64px;white-space:pre;shape-inside:url(#rect1028);display:inline;fill:none;stroke:#000000;stroke-width:4.1537;stroke-dasharray:none;stroke-opacity:1" /><text
       xml:space="preserve"
       style="font-size:50.8px;fill:none;stroke:#000000;stroke-width:1.099;stroke-dasharray:none;stroke-opacity:1"
       x="534.50629"
       y="70.3396"
       id="text1034"
       transform="skewX(-19.4254)"><tspan
         sodipodi:role="line"
         id="tspan1032"
         style="font-size:50.8px;stroke-width:1.099"
         x="534.50629"
         y="70.3396">1</tspan></text><text
       xml:space="preserve"
       style="font-size:50.8px;fill:none;stroke:#000000;stroke-width:1.099;stroke-dasharray:none;stroke-opacity:1"
       x="539.53961"
       y="72.495682"
       id="text1034-6"
       transform="skewX(-19.4254)"><tspan
         sodipodi:role="line"
         id="tspan1032-7"
         style="font-size:50.8px;stroke-width:1.099"
         x="539.53961"
         y="72.495682">1</tspan></text><circle
       style="fill:none;stroke:#000000;stroke-width:1.099;stroke-dasharray:none;stroke-opacity:1"
       id="path1123"
       cx="512.43024"
       cy="32.780422"
       r="5.8204179" /><circle
       style="fill:none;stroke:#000000;stroke-width:1.099;stroke-dasharray:none;stroke-opacity:1"
       id="path1123-5"
       cx="559.92999"
       cy="28.241922"
       r="5.8204179" /><path
       style="fill:#ffffff;stroke:#000000;stroke-width:1.099;stroke-dasharray:none;stroke-opacity:1"
       d="m 506.53537,69.055472 54.42884,-18.684091 c 2.5267,-0.850742 -6.70608,41.824022 -35.08437,40.139182 -0.11107,0.16447 -19.51194,-0.0929 -19.34447,-21.455091 z"
       id="path1206"
       sodipodi:nodetypes="cccc" /><path
       style="fill:#ffffff;stroke:#000000;stroke-width:1.099;stroke-dasharray:none;stroke-opacity:1"
       d="m 560.40488,85.865838 c 0,0 30.03035,18.803862 16.43831,42.849502"
       id="path1358" /><path
       style="fill:#ffffff;stroke:#000000;stroke-width:1.099;stroke-dasharray:none;stroke-opacity:1"
       d="m 568.40391,74.824686 c 0,0 47.24881,18.338515 34.47578,52.434744"
       id="path1360" /><path
       style="fill:none;stroke:#000000;stroke-width:1.099;stroke-dasharray:none;stroke-opacity:1"
       d="m 511.7479,93.900471 c 0,0 -17.49357,14.565609 -15.59338,34.258079"
       id="path1368" /><path
       style="fill:none;stroke:#000000;stroke-width:1.099;stroke-dasharray:none;stroke-opacity:1"
       d="m 503.57407,86.088396 c 0,0 -28.28546,22.432714 -26.43462,44.181594"
       id="path1372" /><path
       style="fill:none;stroke:#000000;stroke-width:1.099;stroke-dasharray:none;stroke-opacity:1"
       d="m 583.01941,39.184232 c 2.64769,-7.563952 25.5025,-5.170537 18.34661,34.032286 0,0 -5.53311,49.658872 -93.74902,28.876292 0,0 -50.79189,-13.388897 -44.26415,-39.32666"
       id="path1374"
       sodipodi:nodetypes="cccc" /><path
       style="fill:none;stroke:#000000;stroke-width:1.099;stroke-dasharray:none;stroke-opacity:1"
       d="m 498.4623,55.229227 c 0,0 -12.58852,39.900454 -33.71909,34.088126 0,0 -18.94873,-5.808277 -6.6022,-29.951842"
       id="path1376" /><path
       style="fill:none;stroke:#000000;stroke-width:1.099;stroke-dasharray:none;stroke-opacity:1"
       d="m 498.175,68.096946 c 0,0 -10.32898,30.165495 -32.51568,27.133895 0,0 -27.89139,-4.092578 -9.67587,-36.426978"
       id="path1378" /><path
       style="fill:none;stroke:#000000;stroke-width:1.099;stroke-dasharray:none;stroke-opacity:1"
       d="m 582.43186,30.099135 c 0.71737,-6.147081 30.95739,-8.483354 28.95319,30.555573 0,0 0.22578,27.740865 -18.50443,41.472092 0,0 -26.41606,28.58496 -94.33254,7.40177 0,0 -58.21065,-14.099459 -40.90073,-50.103981"
       id="path1382"
       sodipodi:nodetypes="ccccc" /><path
       style="fill:none;stroke:#000000;stroke-width:1.099;stroke-dasharray:none;stroke-opacity:1"
       d="m 374.48228,17.780114 c 0,0 27.0562,-6.898394 24.3208,23.310804 0,0 1.49719,35.285071 -23.91939,55.141823 0,0 -31.3244,32.560999 -107.01251,-10.287699"
       id="path1464" /><path
       style="fill:none;stroke:#000000;stroke-width:1.099;stroke-dasharray:none;stroke-opacity:1"
       d="m 306.96229,54.410222 c 0,0 -49.49621,76.377598 -48.67073,18.39032"
       id="path1466" /><path
       style="fill:none;stroke:#000000;stroke-width:1.099;stroke-dasharray:none;stroke-opacity:1"
       d="m 368.47499,79.239586 c 0,0 57.1699,-6.645894 17.3431,56.200364"
       id="path1468" /><path
       style="fill:none;stroke:#000000;stroke-width:1.099;stroke-dasharray:none;stroke-opacity:1"
       d="m 315.11772,90.8078 c 0,0 -50.25701,12.4226 -46.73174,47.31597"
       id="path1470" /><path
       style="opacity:1;fill:none;stroke:#000000;stroke-width:2.64583;stroke-linecap:round;stroke-dasharray:none;stroke-opacity:1"
       d="m 102.20188,70.256582 c 0,0 -12.84406,15.324645 -31.121535,15.977534 0,0 -16.434958,0.284888 -4.875855,-13.175802"
       id="path1576"
       sodipodi:nodetypes="ccc" /><path
       style="fill:none;stroke:#000000;stroke-width:2.64583;stroke-linecap:round;stroke-dasharray:none;stroke-opacity:1"
       d="m 97.40783,83.599141 c 0,0 -14.237201,13.288922 -32.26302,11.027474 0,0 -23.257719,-2.112538 -6.761123,-21.567979"
       id="path1576-6"
       sodipodi:nodetypes="ccc" /><path
       style="opacity:1;fill:none;stroke:#000000;stroke-width:2.64583;stroke-linecap:round;stroke-dasharray:none;stroke-opacity:1"
       d="m 170.07553,46.073602 c 0,0 14.14168,-10.090068 18.06865,-11.151542 0,0 17.57957,-8.667166 21.39374,14.917306 0,0 3.33881,16.940357 -7.126,32.483301 0,0 -24.48684,46.758293 -88.84179,41.095993 0,0 -41.904517,-4.09699 -51.713102,-29.428456 0,0 -4.286535,-8.5378 5.331012,-21.586984"
       id="path1605"
       sodipodi:nodetypes="ccccccc" /><path
       style="opacity:1;fill:none;stroke:#000000;stroke-width:2.64583;stroke-linecap:round;stroke-dasharray:none;stroke-opacity:1"
       d="m 76.665872,74.131085 c 0,0 -21.728985,25.045961 20.752998,35.638595 0,0 46.51751,13.31982 79.25508,-15.752058 0,0 25.61274,-22.773169 20.4216,-42.750003 0,0 -2.80001,-11.939073 -23.12555,3.813001 0,0 -7.9396,-1.092553 -3.12406,-10.19337"
       id="path1607"
       sodipodi:nodetypes="cccccc" /><path
       style="opacity:1;fill:none;stroke:#000000;stroke-width:2.64583;stroke-linecap:round;stroke-dasharray:none;stroke-opacity:1"
       d="m 95.70635,96.87321 c 0,0 -24.203932,9.68594 -28.735155,23.90958 0,0 -4.07812,11.43387 6.015205,22.05371"
       id="path1643"
       sodipodi:nodetypes="ccc" /><path
       style="opacity:1;fill:none;stroke:#000000;stroke-width:2.64583;stroke-linecap:round;stroke-dasharray:none;stroke-opacity:1"
       d="m 97.41194,105.1208 c 0,0 -15.822139,9.1967 -15.051193,21.95038 0,0 -0.05897,10.80938 14.866473,16.66866"
       id="path1645"
       sodipodi:nodetypes="ccc" /><path
       style="opacity:1;fill:none;stroke:#000000;stroke-width:2.64583;stroke-linecap:round;stroke-dasharray:none;stroke-opacity:1"
       d="m 159.21339,80.096939 c 0,0 21.68822,-7.679441 30.45051,17.489961 0,0 8.02175,22.93503 -15.23058,45.85623"
       id="path1651" /><path
       style="opacity:1;fill:none;stroke:#000000;stroke-width:2.64583;stroke-linecap:round;stroke-dasharray:none;stroke-opacity:1"
       d="m 157.73286,90.585697 c 0,0 14.21376,-5.416335 16.4971,19.171703 0,0 1.0296,18.46899 -31.88206,34.6243"
       id="path1653"
       sodipodi:nodetypes="ccc" /><path
       style="opacity:1;fill:none;stroke:#000000;stroke-width:2.64583;stroke-linecap:round;stroke-dasharray:none;stroke-opacity:1"
       d="m 160.12001,79.91966 c 0,0 -10.63676,7.477673 -1.99745,10.559563"
       id="path1655" /><path
       style="opacity:1;fill:none;stroke:#000000;stroke-width:2.64583;stroke-linecap:round;stroke-dasharray:none;stroke-opacity:1"
       d="m 107.17155,67.636887 c 0,0 13.31358,-36.321216 37.12109,-42.373808 0,0 28.87888,-7.500901 19.61582,26.514944 0,0 -11.45376,50.861797 -43.29146,56.600547 0,0 -36.500758,9.99521 -13.44545,-40.741683 z"
       id="path2383"
       sodipodi:nodetypes="ccccc" /><path
       style="opacity:1;fill:none;stroke:#000000;stroke-width:2.64583;stroke-linecap:round;stroke-dasharray:none;stroke-opacity:1"
       d="m 123.43157,113.14544 c 15.84066,-1.60828 25.4814,-16.780484 25.4814,-16.780484 24.74656,-33.896675 22.15844,-58.555268 22.15844,-58.555268 -1.51346,-20.527161 -19.85838,-18.215291 -19.85838,-18.215291 -23.7932,0.755658 -37.78802,26.937761 -37.78802,26.937761 0,0 -15.49355,28.74401 -18.34711,44.380933 0,0 -2.26745,16.614589 6.45452,19.830519"
       id="path2385"
       sodipodi:nodetypes="ccccccc" /><circle
       style="opacity:1;fill:#000000;stroke:#000000;stroke-width:2.64583;stroke-linecap:round;stroke-dasharray:none;stroke-opacity:1"
       id="path2428"
       cx="118.08534"
       cy="52.980824"
       r="4.7882915" /><circle
       style="fill:#000000;stroke:#000000;stroke-width:3.28995;stroke-linecap:round;stroke-dasharray:none;stroke-opacity:1"
       id="path2428-2"
       cx="158.81848"
       cy="39.214207"
       r="5.9539933" /><path
       style="opacity:1;fill:none;stroke:#000000;stroke-width:2.64583;stroke-linecap:round;stroke-dasharray:none;stroke-opacity:1"
       d="m 108.22906,43.765216 c 0,0 4.11439,-7.794125 9.32476,-8.107053 0,0 4.91716,-0.921043 9.17643,5.315341"
       id="path2457" /><path
       style="fill:none;stroke:#000000;stroke-width:3.3573;stroke-linecap:round;stroke-dasharray:none;stroke-opacity:1"
       d="m 150.12845,27.353169 c 0,0 5.36106,-9.63107 12.15018,-10.017749 0,0 6.40707,-1.138118 11.9569,6.568078"
       id="path2457-9" /><path
       style="opacity:1;fill:none;stroke:#000000;stroke-width:3.3573;stroke-linecap:round;stroke-dasharray:none;stroke-opacity:1"
       d="m 163.71095,22.514694 c 0,0 11.74195,6.948481 13.77967,17.249972"
       id="path2486"
       sodipodi:nodetypes="cc" /><path
       style="opacity:1;fill:none;stroke:#000000;stroke-width:3.3573;stroke-linecap:round;stroke-dasharray:none;stroke-opacity:1"
       d="m 177.3211,52.570568 c 0,0 -1.2798,14.433618 -8.2475,27.166585"
       id="path2488" /><path
       style="opacity:1;fill:none;stroke:#000000;stroke-width:3.3573;stroke-linecap:round;stroke-dasharray:none;stroke-opacity:1"
       d="m 163.49215,91.125762 c 0,0 -10.56317,16.005148 -19.70215,19.528178"
       id="path2490" /><path
       style="opacity:1;fill:none;stroke:#000000;stroke-width:3.3573;stroke-linecap:round;stroke-dasharray:none;stroke-opacity:1"
       d="m 141.80106,103.65371 6.2768,3.74972"
       id="path2492" /><path
       style="fill:none;stroke:#000000;stroke-width:3.3573;stroke-linecap:round;stroke-dasharray:none;stroke-opacity:1"
       d="m 147.46013,98.272593 6.2768,3.749707"
       id="path2492-1" /><path
       style="fill:none;stroke:#000000;stroke-width:3.3573;stroke-linecap:round;stroke-dasharray:none;stroke-opacity:1"
       d="m 152.23092,93.091787 6.2768,3.749724"
       id="path2492-1-2" /><path
       style="fill:none;stroke:#000000;stroke-width:3.3573;stroke-linecap:round;stroke-dasharray:none;stroke-opacity:1"
       d="m 163.77181,72.954497 6.2768,3.749724"
       id="path2492-1-2-7" /><path
       style="fill:none;stroke:#000000;stroke-width:3.3573;stroke-linecap:round;stroke-dasharray:none;stroke-opacity:1"
       d="m 165.89134,66.299726 6.2768,3.749724"
       id="path2492-1-2-7-0" /><path
       style="fill:none;stroke:#000000;stroke-width:3.3573;stroke-linecap:round;stroke-dasharray:none;stroke-opacity:1"
       d="m 167.82509,59.081191 6.2768,3.749724"
       id="path2492-1-2-7-0-9" /><path
       style="fill:none;stroke:#000000;stroke-width:3.3573;stroke-linecap:round;stroke-dasharray:none;stroke-opacity:1"
       d="m 170.40194,35.163634 6.2768,3.749724"
       id="path2492-1-2-7-0-9-3" /><path
       style="fill:none;stroke:#000000;stroke-width:3.3573;stroke-linecap:round;stroke-dasharray:none;stroke-opacity:1"
       d="m 137.86926,107.63923 6.2768,3.74972"
       id="path2492-1-2-7-0-9-3-6" /><path
       style="opacity:1;fill:none;stroke:#000000;stroke-width:3.3573;stroke-linecap:round;stroke-dasharray:none;stroke-opacity:1"
       d="m 105.7176,84.413889 49.69477,-24.792051 c 0,0 -7.84966,32.095009 -29.62221,42.812652 0,0 -17.09913,9.51355 -21.82575,-3.561461 0,0 -2.48656,-8.7379 1.75319,-14.45914 z"
       id="path2739"
       sodipodi:nodetypes="ccccc" /><path
       style="opacity:1;fill:none;stroke:#000000;stroke-width:3.3573;stroke-linecap:round;stroke-dasharray:none;stroke-opacity:1"
       d="M 104.29975,96.474811 149.26221,74.435795"
       id="path2741" /><path
       style="opacity:1;fill:none;stroke:#000000;stroke-width:3.3573;stroke-linecap:round;stroke-dasharray:none;stroke-opacity:1"
       d="m 106.536,84.109422 3.27553,8.545052"
       id="path2743" /><path
       style="fill:none;stroke:#000000;stroke-width:3.3573;stroke-linecap:round;stroke-dasharray:none;stroke-opacity:1"
       d="m 114.64027,80.902297 3.27553,8.545052"
       id="path2743-0" /><path
       style="fill:none;stroke:#000000;stroke-width:3.3573;stroke-linecap:round;stroke-dasharray:none;stroke-opacity:1"
       d="m 122.67138,77.166984 3.27553,8.545052"
       id="path2743-0-6" /><path
       style="fill:none;stroke:#000000;stroke-width:3.3573;stroke-linecap:round;stroke-dasharray:none;stroke-opacity:1"
       d="m 130.53957,73.43357 3.27553,8.545052"
       id="path2743-0-6-2" /><path
       style="fill:none;stroke:#000000;stroke-width:3.3573;stroke-linecap:round;stroke-dasharray:none;stroke-opacity:1"
       d="m 137.87625,69.376214 3.27553,8.545052"
       id="path2743-0-6-2-6" /><path
       style="fill:none;stroke:#000000;stroke-width:3.3573;stroke-linecap:round;stroke-dasharray:none;stroke-opacity:1"
       d="m 145.36018,66.199012 3.27553,8.545052"
       id="path2743-0-6-2-6-1" /><path
       style="fill:none;stroke:#000000;stroke-width:3.3573;stroke-linecap:round;stroke-dasharray:none;stroke-opacity:1"
       d="m 140.88246,77.668097 3.27553,8.545052"
       id="path2743-0-6-2-6-1-8" /><path
       style="fill:none;stroke:#000000;stroke-width:3.3573;stroke-linecap:round;stroke-dasharray:none;stroke-opacity:1"
       d="m 134.33474,82.839302 3.92721,9.695"
       id="path2743-0-6-2-6-1-8-7"
       sodipodi:nodetypes="cc" /><path
       style="fill:none;stroke:#000000;stroke-width:3.3573;stroke-linecap:round;stroke-dasharray:none;stroke-opacity:1"
       d="m 124.04029,88.062224 5.00497,12.709746"
       id="path2743-0-6-2-6-1-8-7-9"
       sodipodi:nodetypes="cc" /><path
       style="fill:none;stroke:#000000;stroke-width:3.3573;stroke-linecap:round;stroke-dasharray:none;stroke-opacity:1"
       d="m 114.27737,92.868221 4.25401,11.195949"
       id="path2743-0-6-2-6-1-8-7-9-2"
       sodipodi:nodetypes="cc" /><path
       style="opacity:1;fill:none;stroke:#000000;stroke-width:2.11667;stroke-linecap:round;stroke-linejoin:round;stroke-dasharray:none;stroke-opacity:1"
       d="m 134.07777,68.351662 11.04776,-29.851159 -5.00638,2.31367 -15.73354,20.883366 7.45591,-4.082054 -8.8956,17.710916"
       id="path3085"
       sodipodi:nodetypes="cccccc" /><path
       style="opacity:1;fill:none;stroke:#000000;stroke-width:2.11667;stroke-linecap:round;stroke-linejoin:round;stroke-dasharray:none;stroke-opacity:1"
       d="m 145.17873,37.891567 3.60755,3.044203 -9.26704,25.476512"
       id="path3087" /><path
       style="opacity:1;fill:none;stroke:#000000;stroke-width:2.11667;stroke-linecap:round;stroke-linejoin:round;stroke-dasharray:none;stroke-opacity:1"
       d="m 124.09967,61.778287 2.90646,2.42007"
       id="path3089" /><path
       style="opacity:1;fill:none;stroke:#000000;stroke-width:2.91042;stroke-linecap:round;stroke-linejoin:round;stroke-dasharray:none;stroke-opacity:1"
       d="M 76.075209,74.879282 89.14339,56.97025 c 0,0 -4.360738,-9.35495 -13.762226,4.155535 m 0,0 c 0,0 -8.116162,-10.914212 -15.688206,-0.787438 0,0 -7.055726,10.94826 6.698395,12.061171"
       id="path3091" /><path
       style="opacity:1;fill:none;stroke:#000000;stroke-width:2.91042;stroke-linecap:round;stroke-linejoin:round;stroke-dasharray:none;stroke-opacity:1"
       d="m 62.793991,56.468613 c 0,0 -9.040413,-7.775384 -14.063975,3.136641 0,0 -3.983116,11.550477 9.874082,12.801761"
       id="path3093" /><path
       style="opacity:1;fill:none;stroke:#000000;stroke-width:2.91042;stroke-linecap:round;stroke-linejoin:round;stroke-dasharray:none;stroke-opacity:1"
       d="M 74.687117,58.544508 C 83.855281,41.101193 74.233269,39.396998 74.233269,39.396998 L 58.638143,38.165082 c 0,0 11.265924,3.859112 4.017476,16.552797"
       id="path3095" /><path
       style="opacity:1;fill:none;stroke:#000000;stroke-width:2.91042;stroke-linecap:round;stroke-linejoin:round;stroke-dasharray:none;stroke-opacity:1"
       d="m 58.062166,38.141029 4.993262,-7.94749 16.222953,0.592531 -4.190203,8.762733"
       id="path3097" /><path
       style="opacity:1;fill:none;stroke:#000000;stroke-width:2.91042;stroke-linecap:round;stroke-linejoin:round;stroke-dasharray:none;stroke-opacity:1"
       d="m 79.655391,31.084055 c 0,0 11.051949,4.616566 2.3845,22.56964"
       id="path3099" /><path
       style="opacity:1;fill:none;stroke:#000000;stroke-width:2.91042;stroke-linecap:round;stroke-linejoin:round;stroke-dasharray:none;stroke-opacity:1"
       d="m 85.714086,38.290333 14.734584,0.957985 c 0,0 -8.17269,1.810395 -16.113302,13.362433"
       id="path3101" /><path
       style="opacity:1;fill:none;stroke:#000000;stroke-width:2.91042;stroke-linecap:round;stroke-linejoin:round;stroke-dasharray:none;stroke-opacity:1"
       d="m 66.653415,50.971839 c 0,0 1.83788,-4.127423 5.451173,-4.230812 0,0 3.805389,0.252692 1.712941,5.673879 0,0 -2.867707,5.284064 -6.255167,3.227849 0,0 -2.875206,-1.173819 -0.908947,-4.670916 z"
       id="path3103" /></g></svg>
