<?xml version="1.0" encoding="UTF-8" standalone="no"?>
<!-- Created with Inkscape (http://www.inkscape.org/) -->

<svg
   width="210mm"
   height="297mm"
   viewBox="0 0 210 297"
   version="1.1"
   id="svg5"
   inkscape:version="1.2.2 (732a01da63, 2022-12-09, custom)"
   sodipodi:docname="boy.svg"
   xml:space="preserve"
   xmlns:inkscape="http://www.inkscape.org/namespaces/inkscape"
   xmlns:sodipodi="http://sodipodi.sourceforge.net/DTD/sodipodi-0.dtd"
   xmlns:xlink="http://www.w3.org/1999/xlink"
   xmlns="http://www.w3.org/2000/svg"
   xmlns:svg="http://www.w3.org/2000/svg"><sodipodi:namedview
     id="namedview7"
     pagecolor="#ffffff"
     bordercolor="#000000"
     borderopacity="0.25"
     inkscape:showpageshadow="2"
     inkscape:pageopacity="0.0"
     inkscape:pagecheckerboard="0"
     inkscape:deskcolor="#d1d1d1"
     inkscape:document-units="mm"
     showgrid="false"
     inkscape:zoom="0.64109842"
     inkscape:cx="-34.316104"
     inkscape:cy="568.55544"
     inkscape:window-width="1920"
     inkscape:window-height="1009"
     inkscape:window-x="0"
     inkscape:window-y="0"
     inkscape:window-maximized="1"
     inkscape:current-layer="layer1" /><defs
     id="defs2"><linearGradient
       inkscape:collect="always"
       id="linearGradient2672"><stop
         style="stop-color:#f9f9f9;stop-opacity:1;"
         offset="0"
         id="stop2668" /><stop
         style="stop-color:#000000;stop-opacity:1;"
         offset="1"
         id="stop2670" /></linearGradient><linearGradient
       inkscape:collect="always"
       id="linearGradient2401"><stop
         style="stop-color:#00aad4;stop-opacity:1;"
         offset="0"
         id="stop2397" /><stop
         style="stop-color:#003d4c;stop-opacity:1;"
         offset="1"
         id="stop2399" /></linearGradient><linearGradient
       inkscape:collect="always"
       xlink:href="#linearGradient2401"
       id="linearGradient2403"
       x1="60.534805"
       y1="185.86212"
       x2="135.48891"
       y2="174.6098"
       gradientUnits="userSpaceOnUse"
       gradientTransform="matrix(1,0,0,1.0857759,0,-24.549521)" /><linearGradient
       inkscape:collect="always"
       xlink:href="#linearGradient2672"
       id="linearGradient2674"
       x1="94.226044"
       y1="42.501717"
       x2="154.88033"
       y2="279.44543"
       gradientUnits="userSpaceOnUse"
       gradientTransform="matrix(1,0,0,1.0857759,0,-24.549521)" /></defs><g
     inkscape:label="Layer 1"
     inkscape:groupmode="layer"
     id="layer1"><rect
       style="fill:#00ffff;stroke:none;stroke-width:0.645303;stroke-linejoin:bevel;stroke-dasharray:none;stroke-opacity:1"
       id="rect1706-6-7"
       width="125.57341"
       height="160.93263"
       x="22.318552"
       y="109.58892"
       ry="14.657832" /><path
       style="fill:none;stroke:#f3dc03;stroke-width:7;stroke-linejoin:bevel;stroke-dasharray:none;stroke-opacity:1"
       d="m 70.444878,9.6179176 22.015135,24.2608194 -48.576449,8.081565 61.707176,36.864385 -72.448744,13.883592 67.073934,17.244861 -74.16082,17.33192 75.94382,30.53197 -91.97637,18.65709 88.012168,36.22921 -80.846287,6.94018 65.440854,36.85794"
       id="path3971" /><rect
       style="fill:#ffaaaa;stroke:none;stroke-width:0.777949;stroke-linejoin:bevel;stroke-dasharray:none;stroke-opacity:1"
       id="rect1706"
       width="135.0696"
       height="217.4501"
       x="53.200905"
       y="47.262711"
       ry="19.805477" /><path
       style="fill:#1f1c24;stroke:#000000;stroke-width:0.521002;stroke-linejoin:bevel;stroke-dasharray:none;stroke-opacity:1"
       d="m 66.286215,41.058966 c 0,0 -0.10273,6.264168 -3.805608,8.490292 l 3.140753,-0.876663 c 0,0 0.924854,5.244944 -5.446973,7.383653 0,0 3.612847,2.603673 7.645846,0.417652 0,0 -1.31211,3.335584 -3.393248,3.819035 0,0 4.535681,-0.501622 5.231702,-1.854843 l 5.365465,-6.274339 -5.490246,-14.134428 z"
       id="path993"
       sodipodi:nodetypes="cccccccccc" /><path
       style="fill:url(#linearGradient2674);fill-opacity:1;stroke:none;stroke-width:0.781505;stroke-linejoin:bevel;stroke-dasharray:none;stroke-opacity:1"
       d="M 66.659725,146.74572 60.872888,150.36336 50.432927,137.12764 63.983729,74.73139 76.086628,69.214776 72.830041,45.272692 68.256956,24.05584 76.78191,12.974617 l 32.94817,14.192992 10.22134,19.0403 -3.31273,11.69735 -3.47521,4.679978 13.23661,3.97435 26.1005,47.616963 4.60295,29.48204 -9.26085,16.79111 -14.16963,2.76415 -11.65013,-9.50783 -10.30855,9.49356 -44.221993,-7.71522 z"
       id="path2612" /><path
       style="fill:#e9c6af;stroke:none;stroke-width:0.781505;stroke-linejoin:bevel;stroke-dasharray:none;stroke-opacity:1"
       d="m 59.936289,148.54221 5.135759,8.78794 5.851347,-2.31923 -4.833514,-10.81402 z"
       id="path2987" /><path
       style="fill:#e9c6af;stroke:none;stroke-width:0.763427;stroke-linejoin:bevel;stroke-dasharray:none;stroke-opacity:1"
       d="m 71.685414,39.736619 -2.58212,14.624931 c 0,0 1.767014,14.047718 11.355629,16.198328 l 2.413399,10.291284 16.852752,-21.071576 1.098966,-11.017664 -5.249738,-7.415586 z"
       id="path2836" /><rect
       style="fill:#ac9393;stroke:none;stroke-width:0.49755;stroke-linejoin:bevel;stroke-dasharray:none;stroke-opacity:1"
       id="rect1706-6"
       width="137.85431"
       height="87.150116"
       x="62.17564"
       y="176.82726"
       ry="7.9376802" /><rect
       style="fill:#11002b;stroke:none;stroke-width:0.400562;stroke-linejoin:bevel;stroke-dasharray:none;stroke-opacity:1"
       id="rect1706-6-5"
       width="184.92587"
       height="42.107552"
       x="-93.903557"
       y="264.18674"
       ry="3.8351786"
       transform="matrix(1,0,0.36928577,0.92931589,0,0)" /><path
       style="fill:#ffffff;stroke:#f3dc03;stroke-width:7;stroke-linejoin:bevel;stroke-dasharray:none;stroke-opacity:1"
       d="m 13.001761,249.06795 10.859251,26.20828 157.531688,0.78348"
       id="path4894" /><path
       style="fill:#f4d7ee;stroke:none;stroke-width:0.781505;stroke-linejoin:bevel;stroke-dasharray:none;stroke-opacity:1"
       d="m 131.7688,246.27308 -9.1378,6.92269 -9.25846,7.1367 1.96638,5.93689 8.94307,2.63313 29.35351,-7.65555 -0.90076,-9.3379 -6.77361,-4.35571 c 0,0 -4.07492,4.64107 -14.19233,-1.28025 z"
       id="path3333" /><path
       style="fill:url(#linearGradient2403);fill-opacity:1;stroke:none;stroke-width:0.781505;stroke-linejoin:bevel;stroke-dasharray:none;stroke-opacity:1"
       d="m 63.724493,155.36762 14.875658,80.63364 6.979089,4.9381 10.909453,-5.7034 2.934036,2.2453 2.893421,-52.81968 2.04522,1.26729 22.01841,52.81058 3.43101,-0.18548 1.40729,1.76278 10.0063,0.009 0.77293,3.66693 4.86219,-5.24293 -15.21255,-73.76932 -9.7184,-12.9763 -14.62359,7.37018 -38.152022,-7.23139 z"
       id="path2034" /><path
       style="fill:#f4d7ee;stroke:none;stroke-width:0.781505;stroke-linejoin:bevel;stroke-dasharray:none;stroke-opacity:1"
       d="m 84.656977,244.71396 -12.811321,13.47049 8.901263,8.1679 26.941521,-10.49751 0.19115,-6.89544 -3.34261,-5.658 -6.22885,-0.21532 0.09318,5.87202 -4.754669,1.24263 z"
       id="path3176" /><path
       style="fill:none;stroke:#000000;stroke-width:1.04201;stroke-linejoin:bevel;stroke-dasharray:none;stroke-opacity:1"
       d="M 46.193363,40.023762 57.522464,28.38243 73.370222,41.979808 83.906634,42.661275"
       id="path421" /><path
       style="fill:none;stroke:#000000;stroke-width:1.04201;stroke-linejoin:bevel;stroke-dasharray:none;stroke-opacity:1"
       d="m 59.275503,28.88844 14.604328,4.285877 6.799193,8.064491"
       id="path977" /><path
       style="fill:none;stroke:#000000;stroke-width:1.04201;stroke-linejoin:bevel;stroke-dasharray:none;stroke-opacity:1"
       d="m 46.496067,39.961724 19.584112,1.200323 3.18952,-2.46738"
       id="path979" /><path
       style="fill:none;stroke:#000000;stroke-width:1.04201;stroke-linejoin:bevel;stroke-dasharray:none;stroke-opacity:1"
       d="m 67.898432,31.001141 2.101628,-8.484337 14.206971,0.32303 5.610879,17.809939"
       id="path981" /><path
       style="fill:none;stroke:#000000;stroke-width:1.04201;stroke-linejoin:bevel;stroke-dasharray:none;stroke-opacity:1"
       d="m 82.420808,40.650087 17.867142,0.719062"
       id="path983" /><path
       style="fill:none;stroke:#000000;stroke-width:0.521003;stroke-linejoin:bevel;stroke-dasharray:none;stroke-opacity:1"
       d="m 70.449934,39.742089 -1.730531,8.60716 1.134353,3.083675 -1.202454,1.112594 c 0,0 -0.04213,12.750479 10.930882,17.491919"
       id="path985" /><path
       style="fill:none;stroke:#000000;stroke-width:0.521002;stroke-linejoin:bevel;stroke-dasharray:none;stroke-opacity:1"
       d="m 79.510331,70.064071 c 0,0 15.963474,-5.798892 15.283611,-14.747255"
       id="path989" /><path
       style="fill:#1f1c24;stroke:#000000;stroke-width:0.521002;stroke-linejoin:bevel;stroke-dasharray:none;stroke-opacity:1"
       d="m 89.347835,41.076197 c 0,0 0.158134,3.242843 -2.039585,3.92337 0,0 3.606212,0.0116 5.019608,-1.253586 0,0 0.07907,5.747507 -3.581681,8.413216 0,0 3.614866,-0.838125 4.525292,-2.646597 0,0 -0.05021,6.997645 -4.709686,9.654269 0,0 8.374475,-1.837924 8.403331,-8.619379 l 3.666236,-0.369715 0.21819,-8.855157 z"
       id="path991" /><path
       style="fill:none;stroke:#000000;stroke-width:1.56301;stroke-linejoin:bevel;stroke-dasharray:none;stroke-opacity:1"
       d="m 69.12253,47.903085 3.661616,0.310496"
       id="path1009" /><path
       style="fill:none;stroke:#000000;stroke-width:1.56301;stroke-linejoin:bevel;stroke-dasharray:none;stroke-opacity:1"
       d="m 82.612705,48.1105 6.484078,-0.619116"
       id="path1011" /><path
       style="fill:none;stroke:#000000;stroke-width:0.390752;stroke-linejoin:bevel;stroke-dasharray:none;stroke-opacity:1"
       d="m 81.803276,51.670733 1.439945,-1.961998 4.596569,-0.557391 1.883182,2.107064"
       id="path1013" /><path
       style="fill:none;stroke:#000000;stroke-width:0.390751;stroke-linejoin:bevel;stroke-dasharray:none;stroke-opacity:1"
       d="M 74.147332,51.429167 73.382343,50.004195 70.34028,49.779859"
       id="path1015" /><path
       style="fill:none;stroke:#000000;stroke-width:0.390751;stroke-linejoin:bevel;stroke-dasharray:none;stroke-opacity:1"
       d="m 77.198918,50.085971 -0.611183,8.100838 5.479579,-0.871965 -0.339931,-2.814222 -1.0019,0.174832"
       id="path1017" /><path
       style="fill:#aa0044;stroke:#000000;stroke-width:0.390751;stroke-linejoin:bevel;stroke-dasharray:none;stroke-opacity:1"
       d="m 74.97061,62.81389 1.923293,-2.182261 1.641652,1.457556 1.454373,-1.763355 4.077726,2.214534 c 0,0 -6.190606,0.644809 -8.024154,0.385069"
       id="path1019" /><path
       style="fill:#800033;stroke:#000000;stroke-width:0.390751;stroke-linejoin:bevel;stroke-dasharray:none;stroke-opacity:1"
       d="m 76.75337,63.029139 0.97622,1.920015 3.54965,-0.179219 1.105209,-1.883668"
       id="path1021" /><path
       style="fill:none;stroke:#000000;stroke-width:0.390751;stroke-linejoin:bevel;stroke-dasharray:none;stroke-opacity:1"
       d="m 84.960477,24.12381 2.081427,-0.149764"
       id="path1023" /><path
       style="fill:none;stroke:#000000;stroke-width:0.390751;stroke-linejoin:bevel;stroke-dasharray:none;stroke-opacity:1"
       d="m 85.631971,26.009987 4.297903,-0.167001"
       id="path1025" /><path
       style="fill:none;stroke:#000000;stroke-width:0.390751;stroke-linejoin:bevel;stroke-dasharray:none;stroke-opacity:1"
       d="m 86.47545,28.405304 5.859333,-0.129715"
       id="path1027" /><path
       style="fill:none;stroke:#000000;stroke-width:0.390751;stroke-linejoin:bevel;stroke-dasharray:none;stroke-opacity:1"
       d="m 86.97669,30.675292 8.454982,-0.27666"
       id="path1029" /><path
       style="fill:none;stroke:#000000;stroke-width:0.390751;stroke-linejoin:bevel;stroke-dasharray:none;stroke-opacity:1"
       d="M 87.761589,33.32189 98.130631,32.61661"
       id="path1031" /><path
       style="fill:none;stroke:#000000;stroke-width:0.390751;stroke-linejoin:bevel;stroke-dasharray:none;stroke-opacity:1"
       d="m 88.60824,35.882638 11.62113,-0.346529"
       id="path1033" /><path
       style="fill:none;stroke:#000000;stroke-width:0.390751;stroke-linejoin:bevel;stroke-dasharray:none;stroke-opacity:1"
       d="m 89.373518,38.03952 11.401242,0.525432"
       id="path1035" /><path
       style="fill:none;stroke:#000000;stroke-width:0.390751;stroke-linejoin:bevel;stroke-dasharray:none;stroke-opacity:1"
       d="m 86.430434,23.583023 5.054232,16.923562"
       id="path1065" /><path
       style="fill:none;stroke:#000000;stroke-width:0.390751;stroke-linejoin:bevel;stroke-dasharray:none;stroke-opacity:1"
       d="m 89.21798,24.788359 4.781828,16.478648"
       id="path1067" /><path
       style="fill:none;stroke:#000000;stroke-width:0.390751;stroke-linejoin:bevel;stroke-dasharray:none;stroke-opacity:1"
       d="M 92.618731,28.017101 95.87087,41.302414"
       id="path1069" /><path
       style="fill:none;stroke:#000000;stroke-width:0.390751;stroke-linejoin:bevel;stroke-dasharray:none;stroke-opacity:1"
       d="m 96.212243,31.466733 2.143469,9.594425"
       id="path1071" /><path
       style="fill:none;stroke:#000000;stroke-width:1.95376;stroke-linejoin:bevel;stroke-dasharray:none;stroke-opacity:1"
       d="m 73.035199,22.513356 5.708988,-6.282653 21.581273,17.957824 -0.0744,25.201423"
       id="path1073" /><path
       style="fill:none;stroke:#000000;stroke-width:0.781504;stroke-linejoin:bevel;stroke-dasharray:none;stroke-opacity:1"
       d="m 70.621342,21.824369 7.563606,-7.886214 24.391332,17.705602 1.02441,26.846972"
       id="path1075" /><path
       style="fill:none;stroke:#000000;stroke-width:0.781505;stroke-linejoin:bevel;stroke-dasharray:none;stroke-opacity:1"
       d="M 102.55291,56.517137 81.588583,83.973825"
       id="path1077" /><path
       style="fill:none;stroke:#000000;stroke-width:0.781505;stroke-linejoin:bevel;stroke-dasharray:none;stroke-opacity:1"
       d="M 104.80632,58.227226 82.444182,83.951265"
       id="path1079" /><path
       style="fill:none;stroke:#000000;stroke-width:0.781505;stroke-linejoin:bevel;stroke-dasharray:none;stroke-opacity:1"
       d="M 78.333559,70.013625 82.048558,81.22258 96.727334,57.654795"
       id="path1081" /><path
       style="fill:none;stroke:#000000;stroke-width:0.781505;stroke-linejoin:bevel;stroke-dasharray:none;stroke-opacity:1"
       d="M 105.43164,64.088468 89.944301,81.441276"
       id="path1083" /><path
       style="fill:none;stroke:#000000;stroke-width:0.781505;stroke-linejoin:bevel;stroke-dasharray:none;stroke-opacity:1"
       d="M 100.98455,76.866517 116.42831,56.85834 118.82312,44.008854 108.47313,28.112349 83.973871,17.727423"
       id="path1085" /><path
       style="fill:none;stroke:#000000;stroke-width:0.781505;stroke-linejoin:bevel;stroke-dasharray:none;stroke-opacity:1"
       d="m 75.763013,69.084325 5.430234,14.88574"
       id="path1155" /><path
       style="fill:none;stroke:#000000;stroke-width:0.781505;stroke-linejoin:bevel;stroke-dasharray:none;stroke-opacity:1"
       d="m 80.515694,87.096983 1.835857,3.251605 2.818715,-3.011605 -1.277771,-1.650564"
       id="path1157" /><path
       style="fill:none;stroke:#000000;stroke-width:0.781505;stroke-linejoin:bevel;stroke-dasharray:none;stroke-opacity:1"
       d="m 111.62715,62.716448 14.4133,4.375801 26.21334,49.666551 3.67171,27.97428 -8.31474,15.53745 -16.24973,2.56294"
       id="path1159" /><path
       style="fill:none;stroke:#000000;stroke-width:0.781505;stroke-linejoin:bevel;stroke-dasharray:none;stroke-opacity:1"
       d="m 112.93436,79.397501 15.06834,42.725929 -9.43784,22.36339 18.42205,25.78294"
       id="path1161" /><path
       style="fill:none;stroke:#000000;stroke-width:0.781505;stroke-linejoin:bevel;stroke-dasharray:none;stroke-opacity:1"
       d="m 115.43276,97.137565 4.67766,15.670295 -3.99664,10.61145 5.81114,12.00321"
       id="path1163" /><path
       style="fill:none;stroke:#000000;stroke-width:0.781505;stroke-linejoin:bevel;stroke-dasharray:none;stroke-opacity:1"
       d="m 66.966943,84.708243 2.128462,8.427 -5.438315,6.311474 -1.355106,37.713473 6.129142,16.3339"
       id="path1165" /><path
       style="fill:none;stroke:#000000;stroke-width:1.56301;stroke-linejoin:bevel;stroke-dasharray:none;stroke-opacity:1"
       d="m 67.497904,154.8307 44.077886,6.91744 10.72023,-8.99661"
       id="path1167" /><path
       style="fill:none;stroke:#000000;stroke-width:1.56301;stroke-linejoin:bevel;stroke-dasharray:none;stroke-opacity:1"
       d="M 75.767053,69.708454 66.02564,74.727808"
       id="path1169" /><path
       style="fill:none;stroke:#000000;stroke-width:0.781504;stroke-linejoin:bevel;stroke-dasharray:none;stroke-opacity:1"
       d="m 66.161266,70.815093 -14.539688,66.506147 7.540231,12.20749 6.416553,-4.17277"
       id="path1171" /><path
       style="fill:none;stroke:#000000;stroke-width:0.781505;stroke-linejoin:bevel;stroke-dasharray:none;stroke-opacity:1"
       d="M 80.617271,225.27275 73.291157,138.20416"
       id="path1221" /><path
       style="fill:#e9c6af;stroke:none;stroke-width:0.781505;stroke-linejoin:bevel;stroke-dasharray:none;stroke-opacity:1"
       d="m 122.55574,150.45157 -4.83471,11.66881 c 0,0 9.13422,9.44167 13.94265,0.44491"
       id="path2989" /><path
       style="fill:none;stroke:#000000;stroke-width:0.781505;stroke-linejoin:bevel;stroke-dasharray:none;stroke-opacity:1"
       d="m 130.07749,176.92902 5.54508,57.54024 -32.11278,-114.46136"
       id="path1223" /><path
       style="fill:none;stroke:#000000;stroke-width:0.781505;stroke-linejoin:bevel;stroke-dasharray:none;stroke-opacity:1"
       d="m 89.510874,168.64239 7.141432,14.29232 7.770504,2.24962 21.62399,53.17007 7.53388,-1.38863"
       id="path1225" /><path
       style="fill:none;stroke:#000000;stroke-width:0.781505;stroke-linejoin:bevel;stroke-dasharray:none;stroke-opacity:1"
       d="m 129.43687,237.74531 1.86068,3.22592 11.77233,-1.56785"
       id="path1227" /><path
       style="fill:none;stroke:#000000;stroke-width:0.781505;stroke-linejoin:bevel;stroke-dasharray:none;stroke-opacity:1"
       d="m 142.39464,243.63318 3.70634,-5.32014 -14.95464,-72.40279"
       id="path1229" /><path
       style="fill:none;stroke:#000000;stroke-width:0.781505;stroke-linejoin:bevel;stroke-dasharray:none;stroke-opacity:1"
       d="m 101.22781,184.36344 -1.622894,53.32672 -3.747897,-3.20211 -10.361829,5.96308 -6.283815,-4.6509 -15.439434,-80.01266"
       id="path1231" /><path
       style="fill:none;stroke:#000000;stroke-width:0.781505;stroke-linejoin:bevel;stroke-dasharray:none;stroke-opacity:1"
       d="m 73.032532,259.28408 11.617875,-15.79363 7.739176,2.13278 -4.861586,11.29524"
       id="path1287" /><path
       style="fill:#e9c6af;stroke:none;stroke-width:0.781505;stroke-linejoin:bevel;stroke-dasharray:none;stroke-opacity:1"
       d="m 97.438431,235.45128 1.096679,13.17865 -7.564461,2.28163 1.146855,-3.26224 -6.037712,-2.95482 -0.606875,-5.30778 z"
       id="path2993" /><path
       style="fill:none;stroke:#000000;stroke-width:0.781505;stroke-linejoin:bevel;stroke-dasharray:none;stroke-opacity:1"
       d="m 82.57024,261.44409 23.71271,-11.52936 -0.44709,4.06578"
       id="path1289" /><path
       style="fill:none;stroke:#000000;stroke-width:0.781505;stroke-linejoin:bevel;stroke-dasharray:none;stroke-opacity:1"
       d="m 104.60717,255.58472 -22.831665,10.24166 0.115282,-1.63014 -10.064843,-5.825"
       id="path1291" /><path
       style="fill:none;stroke:#000000;stroke-width:0.781505;stroke-linejoin:bevel;stroke-dasharray:none;stroke-opacity:1"
       d="m 91.092204,250.21922 10.326176,-2.87149 -0.11499,-2.34354 c 0,0 1.61515,-0.96506 3.0078,0.5451 l 1.23915,4.52627"
       id="path1293" /><path
       style="fill:none;stroke:#000000;stroke-width:0.781505;stroke-linejoin:bevel;stroke-dasharray:none;stroke-opacity:1"
       d="M 96.778692,235.89976 97.69259,248.0725"
       id="path1295" /><path
       style="fill:none;stroke:#000000;stroke-width:0.781505;stroke-linejoin:bevel;stroke-dasharray:none;stroke-opacity:1"
       d="m 85.702586,240.51488 0.266703,2.85688"
       id="path1297" /><path
       style="fill:none;stroke:#000000;stroke-width:0.781505;stroke-linejoin:bevel;stroke-dasharray:none;stroke-opacity:1"
       d="m 81.08112,242.24296 9.224115,7.79888"
       id="path1299" /><path
       style="fill:none;stroke:#000000;stroke-width:0.781505;stroke-linejoin:bevel;stroke-dasharray:none;stroke-opacity:1"
       d="m 78.26834,247.34514 16.257261,-2.232"
       id="path1301" /><path
       style="fill:none;stroke:#000000;stroke-width:0.781505;stroke-linejoin:bevel;stroke-dasharray:none;stroke-opacity:1"
       d="m 79.293042,244.02843 9.070903,11.52419"
       id="path1303" /><path
       style="fill:none;stroke:#000000;stroke-width:0.781505;stroke-linejoin:bevel;stroke-dasharray:none;stroke-opacity:1"
       d="m 75.774827,248.89519 16.572047,0.30742"
       id="path1305" /><path
       style="fill:none;stroke:#000000;stroke-width:0.781505;stroke-linejoin:bevel;stroke-dasharray:none;stroke-opacity:1"
       d="m 124.76254,252.04069 -10.13891,5.75885 -0.68363,3.66045 12.53565,2.13601 20.02545,-8.51326 1.91561,-5.3428"
       id="path1307" /><path
       style="fill:none;stroke:#000000;stroke-width:0.781505;stroke-linejoin:bevel;stroke-dasharray:none;stroke-opacity:1"
       d="m 143.76986,246.98325 7.76367,5.1398 0.31986,7.80311 -26.55266,9.2672 0.21383,-2.45543 -12.81819,-2.0958"
       id="path1309" /><path
       style="fill:none;stroke:#000000;stroke-width:0.781505;stroke-linejoin:bevel;stroke-dasharray:none;stroke-opacity:1"
       d="m 122.31711,255.20273 7.99782,-8.66115 7.63434,5.76145 -4.38731,7.3384"
       id="path1311" /><path
       style="fill:none;stroke:#000000;stroke-width:0.781505;stroke-linejoin:bevel;stroke-dasharray:none;stroke-opacity:1"
       d="m 141.79393,239.96848 2.31521,10.01239"
       id="path1313" /><path
       style="fill:#e9c6af;stroke:none;stroke-width:0.781505;stroke-linejoin:bevel;stroke-dasharray:none;stroke-opacity:1"
       d="m 130.8561,240.20389 1.01903,8.83204 6.0628,3.10918 7.76038,-3.21554 -2.56131,-8.90727 z"
       id="path2991" /><path
       style="fill:none;stroke:#000000;stroke-width:0.781505;stroke-linejoin:bevel;stroke-dasharray:none;stroke-opacity:1"
       d="m 145.41548,247.71352 c 0,0 -3.54301,4.2662 -8.9616,3.52199"
       id="path1315" /><path
       style="fill:none;stroke:#000000;stroke-width:0.781505;stroke-linejoin:bevel;stroke-dasharray:none;stroke-opacity:1"
       d="m 131.11683,240.9452 1.12475,6.207"
       id="path1317" /><path
       style="fill:none;stroke:#000000;stroke-width:0.781505;stroke-linejoin:bevel;stroke-dasharray:none;stroke-opacity:1"
       d="m 125.54264,244.6478 8.00886,11.23494"
       id="path1319" /><path
       style="fill:none;stroke:#000000;stroke-width:0.781505;stroke-linejoin:bevel;stroke-dasharray:none;stroke-opacity:1"
       d="m 116.62674,252.79334 24.63886,2.09419"
       id="path1321" /><path
       style="fill:none;stroke:#000000;stroke-width:0.781505;stroke-linejoin:bevel;stroke-dasharray:none;stroke-opacity:1"
       d="m 119.40906,247.59937 14.44529,7.97432"
       id="path1323" /><path
       style="fill:none;stroke:#000000;stroke-width:0.781505;stroke-linejoin:bevel;stroke-dasharray:none;stroke-opacity:1"
       d="m 129.63488,244.50025 7.5555,11.9597"
       id="path1325" /><path
       style="fill:none;stroke:#000000;stroke-width:0.781505;stroke-linejoin:bevel;stroke-dasharray:none;stroke-opacity:1"
       d="m 123.05469,151.78697 -5.34719,9.68743 c 0,0 4.30901,12.45094 13.68729,2.20035"
       id="path1401" /><path
       style="fill:none;stroke:#000000;stroke-width:0.781505;stroke-linejoin:bevel;stroke-dasharray:none;stroke-opacity:1"
       d="m 118.37484,169.96305 c 0,0 8.10864,8.56111 14.89611,-2.45534"
       id="path1403" /><path
       style="fill:none;stroke:#000000;stroke-width:0.781505;stroke-linejoin:bevel;stroke-dasharray:none;stroke-opacity:1"
       d="m 71.703061,149.9324 c 0,0 2.89323,10.12859 -8.256471,11.04579"
       id="path1405" /><path
       style="fill:none;stroke:#000000;stroke-width:0.781505;stroke-linejoin:bevel;stroke-dasharray:none;stroke-opacity:1"
       d="m 60.497611,149.57745 3.544519,6.45339 c 0,0 2.725127,-0.38431 4.61903,-2.53237"
       id="path1407" /><path
       style="fill:none;stroke:#000000;stroke-width:0.781505;stroke-linejoin:bevel;stroke-dasharray:none;stroke-opacity:1"
       d="m 80.175784,84.851815 -8.657719,43.841995 3.696573,2.28197 5.659744,-43.234791"
       id="path1409" /><path
       style="fill:none;stroke:#000000;stroke-width:0.781505;stroke-linejoin:bevel;stroke-dasharray:none;stroke-opacity:1"
       d="m 83.863068,89.262617 c 0,0 -4.90624,6.938586 4.535397,10.058889 0,0 6.866878,3.605504 -2.249536,17.747754 l 2.785946,1.91419 c 0,0 9.480496,-16.54255 1.332152,-22.249348 0,0 -7.348377,-1.904104 -5.707895,-9.583786"
       id="path1411" /><ellipse
       style="fill:#000000;stroke:#000000;stroke-width:0.781505;stroke-linejoin:bevel;stroke-dasharray:none;stroke-opacity:1"
       id="path1544"
       cx="71.484871"
       cy="52.571533"
       rx="1.1396866"
       ry="1.2374443" /><ellipse
       style="fill:#000000;stroke:#000000;stroke-width:0.781505;stroke-linejoin:bevel;stroke-dasharray:none;stroke-opacity:1"
       id="path1544-3"
       cx="85.489647"
       cy="51.92947"
       rx="1.1396866"
       ry="1.2374443" /><path
       style="fill:#800033;stroke:none;stroke-width:0.750001;stroke-linejoin:bevel;stroke-dasharray:none;stroke-opacity:1"
       d="m 59.759735,155.11673 14.974999,81.73295 7.396414,4.27696 -17.878428,14.42366"
       id="path3845" /><path
       style="fill:#800033;stroke:none;stroke-width:0.750001;stroke-linejoin:bevel;stroke-dasharray:none;stroke-opacity:1"
       d="m 138.21525,171.97146 17.42219,67.39636 -3.97549,2.53425 6.15831,5.6924 1.55408,13.95453 15.65048,-17.82523 15.29581,16.81927"
       id="path3847" /><path
       style="fill:#800033;stroke:none;stroke-width:0.750001;stroke-linejoin:bevel;stroke-dasharray:none;stroke-opacity:1"
       d="m 55.868075,207.90404 1.658874,50.93982 -19.888745,-25.50538 -23.133946,24.78315"
       id="path3849" /><path
       style="fill:none;stroke:#000000;stroke-width:8.22885;stroke-linejoin:bevel;stroke-dasharray:none;stroke-opacity:1"
       d="m 125.77804,60.871358 12.79344,8.828148 22.42984,48.852364 4.64109,40.36035 -8.3576,12.73903 -15.49998,-1.24167"
       id="path3851" /><path
       style="fill:none;stroke:#000000;stroke-width:7;stroke-linejoin:bevel;stroke-dasharray:none;stroke-opacity:1"
       d="m 55.671395,79.60173 -13.827167,66.14857 12.335955,14.92663 4.35434,26.45653"
       id="path3853" /><path
       style="fill:none;stroke:#000000;stroke-width:7;stroke-linejoin:bevel;stroke-dasharray:none;stroke-opacity:1"
       d="m 102.59703,236.20161 1.08657,-47.79779 10.57552,24.92985"
       id="path3855" /><path
       style="fill:none;stroke:#000000;stroke-width:7;stroke-linejoin:bevel;stroke-dasharray:none;stroke-opacity:1"
       d="M 74.047971,9.5631054 111.44597,25.626285 121.96345,41.175199"
       id="path3857" /><path
       style="fill:none;stroke:#000000;stroke-width:7;stroke-linejoin:bevel;stroke-dasharray:none;stroke-opacity:1"
       d="m 23.807812,141.2283 20.42397,23.43703 7.459286,31.04946"
       id="path3859" /><path
       style="fill:none;stroke:#ffffff;stroke-width:1;stroke-linejoin:bevel;stroke-dasharray:none;stroke-opacity:1"
       d="m 69.33735,80.077306 0.960824,16.296936 -3.878762,4.065768 -0.146704,37.02883 4.949214,11.54117 36.608058,6.11317"
       id="path4950" /><path
       style="fill:none;stroke:#ffffff;stroke-width:1;stroke-linejoin:bevel;stroke-dasharray:none;stroke-opacity:1"
       d="m 68.3862,162.99194 12.605178,68.12343 11.189737,-2.70675 3.311298,0.97533"
       id="path5114" /><path
       style="fill:none;stroke:#ffffff;stroke-width:1;stroke-linejoin:bevel;stroke-dasharray:none;stroke-opacity:1"
       d="m 65.889023,76.716032 -10.984998,57.884838 4.089953,8.98758"
       id="path5116" /><path
       style="fill:none;stroke:#ffffff;stroke-width:1;stroke-linejoin:bevel;stroke-dasharray:none;stroke-opacity:1"
       d="m 116.80144,79.89191 17.90583,42.94853 -6.04707,2.9921 4.7074,6.38239 -6.2244,-0.12252 5.90036,6.19699 -9.11171,0.40948 9.60663,14.53489"
       id="path5118" /></g></svg>
