<?xml version="1.0" encoding="UTF-8" standalone="no"?>
<!-- Created with Inkscape (http://www.inkscape.org/) -->

<svg
   width="210mm"
   height="297mm"
   viewBox="0 0 210 297"
   version="1.1"
   id="svg5"
   xml:space="preserve"
   inkscape:version="1.2.2 (732a01da63, 2022-12-09, custom)"
   sodipodi:docname="girl.svg"
   xmlns:inkscape="http://www.inkscape.org/namespaces/inkscape"
   xmlns:sodipodi="http://sodipodi.sourceforge.net/DTD/sodipodi-0.dtd"
   xmlns:xlink="http://www.w3.org/1999/xlink"
   xmlns="http://www.w3.org/2000/svg"
   xmlns:svg="http://www.w3.org/2000/svg"><sodipodi:namedview
     id="namedview7"
     pagecolor="#ffffff"
     bordercolor="#000000"
     borderopacity="0.25"
     inkscape:showpageshadow="2"
     inkscape:pageopacity="0.0"
     inkscape:pagecheckerboard="0"
     inkscape:deskcolor="#d1d1d1"
     inkscape:document-units="mm"
     showgrid="false"
     inkscape:zoom="0.50830749"
     inkscape:cx="804.63107"
     inkscape:cy="591.17759"
     inkscape:window-width="1920"
     inkscape:window-height="1009"
     inkscape:window-x="0"
     inkscape:window-y="0"
     inkscape:window-maximized="1"
     inkscape:current-layer="layer1" /><defs
     id="defs2"><linearGradient
       inkscape:collect="always"
       id="linearGradient3004"><stop
         style="stop-color:#ff3d3d;stop-opacity:1;"
         offset="0"
         id="stop3000" /><stop
         style="stop-color:#ff873d;stop-opacity:1;"
         offset="1"
         id="stop3002" /></linearGradient><linearGradient
       inkscape:collect="always"
       id="linearGradient2996"><stop
         style="stop-color:#666666;stop-opacity:1;"
         offset="0"
         id="stop2992" /><stop
         style="stop-color:#000000;stop-opacity:1;"
         offset="1"
         id="stop2994" /></linearGradient><linearGradient
       inkscape:collect="always"
       xlink:href="#linearGradient2996"
       id="linearGradient2998"
       x1="63.119954"
       y1="183.14669"
       x2="151.86527"
       y2="183.14669"
       gradientUnits="userSpaceOnUse" /><linearGradient
       inkscape:collect="always"
       xlink:href="#linearGradient3004"
       id="linearGradient3006"
       x1="45.070723"
       y1="118.29744"
       x2="155.00431"
       y2="118.29744"
       gradientUnits="userSpaceOnUse" /></defs><g
     inkscape:label="Layer 1"
     inkscape:groupmode="layer"
     id="layer1"><path
       style="fill:#1a1a1a;fill-opacity:1;stroke:none;stroke-width:3.49999;stroke-dasharray:none;stroke-opacity:1"
       d="m 119.29628,219.78782 5.74197,36.3336 -5.59761,4.18752 3.64871,12.85131 31.14163,12.6002 13.24679,-7.67459 -2.72663,-14.51148 -16.35972,-4.27597 -1.90314,-2.60259 -5.66369,-38.8325 z"
       id="path2879" /><path
       style="fill:#1a1a1a;fill-opacity:1;stroke:none;stroke-width:1.5;stroke-dasharray:none;stroke-opacity:1"
       d="m 58.396658,218.20288 21.795687,0.78688 1.177266,29.03516 4.618582,6.49529 -0.661831,12.74253 -17.626457,12.91537 -16.548819,-4.50675 7.515997,-16.4736 z"
       id="path2605" /><path
       style="fill:#e9c6af;fill-opacity:1;stroke:none;stroke-width:1.5;stroke-dasharray:none;stroke-opacity:1"
       d="m 112.94229,203.00415 7.41333,24.00179 0.14944,-7.53226 19.72785,-3.28069 -4.32275,-12.90621 -23.30844,-3.01535 z"
       id="path2518" /><path
       style="fill:#e9c6af;fill-opacity:1;stroke:none;stroke-width:1.5;stroke-dasharray:none;stroke-opacity:1"
       d="m 65.827261,198.80951 -3.319322,20.8492 17.133387,-1.17524 0.588634,26.66335 10.062676,-45.99674 z"
       id="path2309" /><path
       style="fill:url(#linearGradient2998);fill-opacity:1;stroke:none;stroke-width:1.5;stroke-dasharray:none;stroke-opacity:1"
       d="m 70.499726,161.21935 -7.379772,37.36243 88.745316,6.49225 -2.83439,-7.80269 -8.01618,0.51848 -9.62247,-34.31049 z"
       id="path2170" /><path
       style="fill:url(#linearGradient3006);stroke:none;stroke-width:1.5;stroke-dasharray:none;stroke-opacity:1;fill-opacity:1"
       d="m 81.200849,71.960633 c 0,0 -5.083186,1.890946 -4.221078,9.938644 0,0 -7.103244,-10.590308 -21.330065,27.002903 0,0 -18.164258,-2.14714 -6.889751,24.15835 0,0 5.773483,5.2489 14.047893,5.46748 0,0 -10.491696,32.44699 28.198467,25.73007 0,0 52.164675,12.78624 47.363095,-13.05871 0,0 24.07092,1.96821 14.30205,-30.46557 0,0 -16.51933,-44.937394 -43.40024,-40.335078 0,0 2.01904,-7.080878 -5.21433,-11.224691"
       id="path1569" /><path
       style="fill:#e9c6af;stroke-width:2;stroke-dasharray:2, 2"
       d="m 75.562917,34.607939 -1.824609,27.506937 c 0,0 2.636872,11.102684 15.802676,14.482913 0,0 15.716546,-1.191228 16.426776,-12.158756 l -3.2835,-33.520064 z"
       id="path451" /><path
       style="fill:#e9c6af;fill-opacity:1;stroke:none;stroke-width:1.5;stroke-dasharray:none;stroke-opacity:1"
       d="m 68.381054,55.965878 c 0,0 0.03863,5.473575 5.367842,4.243445 l 1.126436,-6.301117 z"
       id="path2082" /><path
       style="fill:none;stroke:#000000;stroke-width:2;stroke-dasharray:none;stroke-opacity:1"
       d="M 75.571533,34.707983 73.746924,62.21492 c 0,0 2.636872,11.102684 15.802676,14.482913 0,0 15.71655,-1.191228 16.42677,-12.158756 l -3.28349,-33.520064 z"
       id="path451-3" /><path
       style="fill:none;stroke:#000000;stroke-width:1;stroke-dasharray:none;stroke-opacity:1"
       d="M 74.172928,54.881369 64.481434,57.483787 59.405125,54.23209 72.525879,20.232354 87.37716,19.72088 88.926156,22.291498 76.342054,27.186273 119.73515,9.9684325 140.79036,28.476882 132.42525,66.045005 106.68727,64.938581"
       id="path1034" /><path
       style="fill:none;stroke:#000000;stroke-width:1;stroke-dasharray:none;stroke-opacity:1"
       d="m 81.955012,72.839918 c 0,0 -6.708783,2.043245 -3.259651,11.206038"
       id="path1044" /><path
       style="fill:none;stroke:#000000;stroke-width:1;stroke-dasharray:none;stroke-opacity:1"
       d="m 77.23117,80.799558 c 0,0 -9.064741,-1.514544 -15.386608,17.084008 l -8.043117,16.940904"
       id="path1046" /><path
       style="fill:none;stroke:#000000;stroke-width:1;stroke-dasharray:none;stroke-opacity:1"
       d="m 57.813728,106.7045 c 0,0 -14.361009,0.78841 -12.138882,16.81104 0,0 4.040111,32.83369 72.932674,4.51581"
       id="path1048" /><path
       style="fill:none;stroke:#000000;stroke-width:1;stroke-dasharray:none;stroke-opacity:1"
       d="m 106.45406,133.44555 19.71691,-3.9129 3.3153,1.56622 -8.43667,-14.78768 -57.734219,0.98584"
       id="path1050" /><path
       style="fill:none;stroke:#000000;stroke-width:1;stroke-dasharray:none;stroke-opacity:1"
       d="m 76.752822,116.67956 c 0,0 1.812684,-8.65795 5.87797,-8.65795 l 14.89766,8.15972"
       id="path1052" /><path
       style="fill:none;stroke:#000000;stroke-width:1;stroke-dasharray:none;stroke-opacity:1"
       d="m 125.8079,130.34093 9.29132,4.37005"
       id="path1054" /><path
       style="fill:none;stroke:#000000;stroke-width:1;stroke-dasharray:none;stroke-opacity:1"
       d="m 102.15424,134.41682 c 0,0 29.84302,27.76135 46.21812,12.97897 0,0 12.44365,-9.8293 0.62278,-32.47194 0,0 -14.23115,-36.618055 -41.03978,-33.975884 0,0 -1.24556,-8.803704 -3.94074,-10.98873"
       id="path1056" /><path
       style="fill:none;stroke:#000000;stroke-width:1.5;stroke-dasharray:none;stroke-opacity:1"
       d="m 108.70666,80.11185 c 0,0 -13.250604,9.785575 -26.001665,6.312591"
       id="path1058" /><path
       style="fill:none;stroke:#000000;stroke-width:1.5;stroke-dasharray:none;stroke-opacity:1"
       d="m 64.855102,138.20782 c 0,0 -12.741785,38.99256 38.624198,22.70359"
       id="path1060" /><path
       style="fill:none;stroke:#000000;stroke-width:1.5;stroke-dasharray:none;stroke-opacity:1"
       d="m 91.710109,164.19623 c 0,0 50.374831,12.84912 45.742421,-13.66667"
       id="path1062" /><path
       style="fill:none;stroke:#000000;stroke-width:1.5;stroke-dasharray:none;stroke-opacity:1"
       d="M 69.355009,162.10131 63.31273,197.20615"
       id="path1064" /><path
       style="fill:none;stroke:#000000;stroke-width:1.5;stroke-dasharray:none;stroke-opacity:1"
       d="m 58.843301,198.98041 70.024159,-7.81256"
       id="path1066" /><path
       style="fill:none;stroke:#000000;stroke-width:1.5;stroke-dasharray:none;stroke-opacity:1"
       d="m 61.117104,198.27415 90.881946,5.89917"
       id="path1068" /><path
       style="fill:none;stroke:#000000;stroke-width:1.5;stroke-dasharray:none;stroke-opacity:1"
       d="m 140.68038,200.5029 -8.40221,-35.67594"
       id="path1070" /><path
       style="fill:none;stroke:#000000;stroke-width:1;stroke-dasharray:none;stroke-opacity:1"
       d="m 59.265994,218.58336 21.142671,-0.25574 0.642655,38.23198"
       id="path1094" /><path
       style="fill:none;stroke:#000000;stroke-width:1;stroke-dasharray:none;stroke-opacity:1"
       d="m 81.39981,246.36061 4.046736,5.81171 v 14.34644 l -16.771294,13.72232 -18.878143,-5.06304 9.662346,-17.04824 -0.553877,-41.49031"
       id="path1096" /><path
       style="fill:none;stroke:#000000;stroke-width:1;stroke-dasharray:none;stroke-opacity:1"
       d="m 119.46483,219.37972 6.27284,36.97052 -5.60766,3.18279 3.14172,12.96706 30.84609,13.53018 12.89549,-8.07625 -1.7769,-13.18567 -16.99788,-5.49503 -1.92399,-3.70884 -5.35457,-38.80308 z"
       id="path1098" /><path
       style="fill:none;stroke:#000000;stroke-width:1;stroke-dasharray:none;stroke-opacity:1"
       d="m 133.16729,265.05058 18.44087,7.28388 1.88821,12.24886"
       id="path1100" /><path
       style="fill:none;stroke:#ffffff;stroke-width:1;stroke-dasharray:none;stroke-opacity:1"
       d="m 131.3334,257.59845 20.04552,-16.36848"
       id="path1102" /><path
       style="fill:none;stroke:#ffffff;stroke-width:1;stroke-dasharray:none;stroke-opacity:1"
       d="m 151.46372,256.42974 -21.95228,-9.49671"
       id="path1104" /><path
       style="fill:none;stroke:#ffffff;stroke-width:1;stroke-dasharray:none;stroke-opacity:1"
       d="M 131.36918,244.60622 147.5601,230.73019"
       id="path1106" /><path
       style="fill:none;stroke:#ffffff;stroke-width:1;stroke-dasharray:none;stroke-opacity:1"
       d="m 126.60294,236.97255 23.19519,14.55579"
       id="path1108" /><path
       style="fill:none;stroke:#ffffff;stroke-width:1;stroke-dasharray:none;stroke-opacity:1"
       d="m 129.23848,234.63779 14.06685,-11.34384"
       id="path1110" /><path
       style="fill:none;stroke:#ffffff;stroke-width:1;stroke-dasharray:none;stroke-opacity:1"
       d="m 126.50488,223.49271 14.24308,8.81033"
       id="path1112" /><path
       style="fill:none;stroke:#eeeeee;stroke-width:1;stroke-dasharray:none;stroke-opacity:1"
       d="m 57.440062,218.59661 12.14683,15.7404"
       id="path1114" /><path
       style="fill:none;stroke:#eeeeee;stroke-width:1;stroke-dasharray:none;stroke-opacity:1"
       d="m 70.617791,221.41899 -13.886638,15.3495"
       id="path1116" /><path
       style="fill:none;stroke:#eeeeee;stroke-width:1;stroke-dasharray:none;stroke-opacity:1"
       d="M 73.583278,227.13662 56.120299,244.31339"
       id="path1118" /><path
       style="fill:none;stroke:#eeeeee;stroke-width:1;stroke-dasharray:none;stroke-opacity:1"
       d="m 54.465299,246.08499 16.290297,8.43534"
       id="path1120" /><path
       style="fill:none;stroke:#e6e6e6;stroke-width:1;stroke-dasharray:none;stroke-opacity:1"
       d="M 57.705074,258.95001 75.845156,248.03416"
       id="path1122" /><path
       style="fill:none;stroke:#e6e6e6;stroke-width:1;stroke-dasharray:none;stroke-opacity:1"
       d="M 75.845156,251.91261 58.402055,235.09626"
       id="path1124" /><path
       style="fill:none;stroke:#000000;stroke-width:1;stroke-dasharray:none;stroke-opacity:1"
       d="m 54.873418,142.7594 c 0,0 13.52622,14.1172 48.665512,-1.63645"
       id="path1126" /><path
       style="fill:none;stroke:#000000;stroke-width:1;stroke-dasharray:none;stroke-opacity:1"
       d="m 113.76177,153.19956 c 0,0 39.6922,14.02311 44.84271,-6.81214"
       id="path1128" /><path
       style="fill:none;stroke:#000000;stroke-width:1;stroke-dasharray:none;stroke-opacity:1"
       d="m 63.465111,155.48263 -3.168218,32.27716"
       id="path1130" /><path
       style="fill:none;stroke:#000000;stroke-width:2.5;stroke-dasharray:none;stroke-opacity:1"
       d="m 66.288816,197.658 -2.96151,21.01943"
       id="path1132" /><path
       style="fill:none;stroke:#000000;stroke-width:2.5;stroke-dasharray:none;stroke-opacity:1"
       d="m 90.377099,199.67076 -9.071367,45.88023"
       id="path1134" /><path
       style="fill:none;stroke:#000000;stroke-width:2.5;stroke-dasharray:none;stroke-opacity:1"
       d="m 112.05244,201.08063 7.35674,23.12364"
       id="path1136" /><path
       style="fill:none;stroke:#000000;stroke-width:0.5;stroke-dasharray:none;stroke-opacity:1"
       d="m 135.32449,202.24801 3.81352,14.58627"
       id="path1138" /><path
       style="fill:none;stroke:#000000;stroke-width:0.499999;stroke-dasharray:none;stroke-opacity:1"
       d="m 82.924956,199.83375 5.729562,6.63325"
       id="path1185" /><path
       style="fill:none;stroke:#000000;stroke-width:0.499999;stroke-dasharray:none;stroke-opacity:1"
       d="m 74.048373,199.25734 13.479843,13.80449"
       id="path1187" /><path
       style="fill:none;stroke:#000000;stroke-width:0.499999;stroke-dasharray:none;stroke-opacity:1"
       d="M 64.631167,199.67474 85.893091,218.8656"
       id="path1189" /><path
       style="fill:none;stroke:#000000;stroke-width:0.499999;stroke-dasharray:none;stroke-opacity:1"
       d="m 63.473062,208.23331 21.782675,17.16086"
       id="path1191" /><path
       style="fill:none;stroke:#000000;stroke-width:0.499999;stroke-dasharray:none;stroke-opacity:1"
       d="M 63.555218,218.20837 74.672477,199.45345"
       id="path1193" /><path
       style="fill:none;stroke:#000000;stroke-width:0.499999;stroke-dasharray:none;stroke-opacity:1"
       d="M 68.983991,219.83819 81.758903,200.31607"
       id="path1195" /><path
       style="fill:none;stroke:#000000;stroke-width:0.499999;stroke-dasharray:none;stroke-opacity:1"
       d="M 76.310251,218.79934 89.148765,201.33239"
       id="path1197" /><path
       style="fill:none;stroke:#000000;stroke-width:0.499999;stroke-dasharray:none;stroke-opacity:1"
       d="m 79.110106,225.89769 8.938861,-11.46972"
       id="path1199" /><path
       style="fill:none;stroke:#000000;stroke-width:0.499999;stroke-dasharray:none;stroke-opacity:1"
       d="m 132.01581,202.99402 6.61735,4.87224"
       id="path1201" /><path
       style="fill:none;stroke:#000000;stroke-width:0.499999;stroke-dasharray:none;stroke-opacity:1"
       d="m 139.59516,213.85554 -16.1525,-11.32"
       id="path1203" /><path
       style="fill:none;stroke:#000000;stroke-width:0.499999;stroke-dasharray:none;stroke-opacity:1"
       d="m 115.76129,201.20518 20.01637,15.67547"
       id="path1205" /><path
       style="fill:none;stroke:#000000;stroke-width:0.499999;stroke-dasharray:none;stroke-opacity:1"
       d="m 114.09834,207.92457 13.92638,10.50905"
       id="path1207" /><path
       style="fill:none;stroke:#000000;stroke-width:0.499999;stroke-dasharray:none;stroke-opacity:1"
       d="m 117.248,214.48892 5.21942,4.12624"
       id="path1209" /><path
       style="fill:none;stroke:#000000;stroke-width:0.499999;stroke-dasharray:none;stroke-opacity:1"
       d="m 121.11321,201.07135 -4.9332,10.44016"
       id="path1211" /><path
       style="fill:none;stroke:#000000;stroke-width:0.499999;stroke-dasharray:none;stroke-opacity:1"
       d="m 125.88343,201.16543 -8.59567,18.47797"
       id="path1213" /><path
       style="fill:none;stroke:#000000;stroke-width:0.499999;stroke-dasharray:none;stroke-opacity:1"
       d="m 130.82458,203.07352 -7.06788,15.38926"
       id="path1215" /><path
       style="fill:none;stroke:#000000;stroke-width:0.499999;stroke-dasharray:none;stroke-opacity:1"
       d="m 136.92383,202.79791 -8.57181,15.68739"
       id="path1217" /><path
       style="fill:none;stroke:#000000;stroke-width:0.499999;stroke-dasharray:none;stroke-opacity:1"
       d="m 139.11548,209.48814 -3.26494,8.07889"
       id="path1219" /><path
       style="fill:none;stroke:#000000;stroke-width:1.5;stroke-dasharray:none;stroke-opacity:1"
       d="m 67.502603,56.883262 c 0,0 1.252548,6.204122 6.288494,3.565134"
       id="path1284" /><path
       style="fill:none;stroke:#000000;stroke-width:1.5;stroke-dasharray:none;stroke-opacity:1"
       d="m 76.611117,55.787183 c 0,0 7.504998,-7.832992 13.158506,0.526847"
       id="path1286" /><path
       style="fill:none;stroke:#000000;stroke-width:1.5;stroke-dasharray:none;stroke-opacity:1"
       d="m 78.632943,56.729566 c 0,0 4.000871,3.968387 9.469387,0.306998"
       id="path1288" /><path
       style="fill:none;stroke:#000000;stroke-width:1.5;stroke-dasharray:none;stroke-opacity:1"
       d="m 95.681008,56.844839 c 0,0 3.859056,-4.371644 8.658912,-1.646695"
       id="path1290" /><path
       style="fill:none;stroke:#000000;stroke-width:1.5;stroke-dasharray:none;stroke-opacity:1"
       d="m 90.871248,58.405574 c 0,0 4.120896,-2.080056 4.576836,2.343875 0,0 -2.116497,1.34366 -5.719261,0.281251"
       id="path1292" /><path
       style="fill:#00ccff;stroke:#000000;stroke-width:1.5;stroke-dasharray:none;stroke-opacity:1"
       d="m 74.145234,53.727328 -11.551025,4.965832 -5.335024,-4.628332 14.643978,-35.39146 16.106473,-0.32007 3.28626,3.283091 29.005914,-11.126381 22.61086,18.039568 -9.1315,38.409938 -26.98883,-0.587852 -4.14823,-35.690931 -27.440429,3.005804 z"
       id="path1437" /><path
       style="fill:none;stroke:#000000;stroke-width:1.5;stroke-dasharray:none;stroke-opacity:1"
       d="m 83.63918,65.440371 c 0,0 4.87829,4.324901 13.913522,1.646696"
       id="path1294" /><path
       style="fill:none;stroke:#000000;stroke-width:1.5;stroke-dasharray:none;stroke-opacity:1"
       d="m 86.927816,67.073202 3.054921,-1.478737 1.305235,0.759769 1.798807,-1.05845 2.465091,2.511439 -1.22482,3.069579 -6.426745,-0.362061 z"
       id="path1296" /><path
       style="fill:none;stroke:#000000;stroke-width:1.5;stroke-dasharray:none;stroke-opacity:1"
       d="m 70.544848,58.634931 c 0,0 3.400343,1.739387 -0.426231,4.761034 0,0 -3.15633,1.363863 -1.63798,-4.407689"
       id="path1298" /><path
       style="fill:none;stroke:#000000;stroke-width:1.5;stroke-dasharray:none;stroke-opacity:1"
       d="M 79.59632,53.400922 77.816529,50.548023"
       id="path1300" /><path
       style="fill:none;stroke:#000000;stroke-width:1.5;stroke-dasharray:none;stroke-opacity:1"
       d="M 82.472987,52.347227 81.886323,48.385573"
       id="path1302" /><path
       style="fill:none;stroke:#000000;stroke-width:1.5;stroke-dasharray:none;stroke-opacity:1"
       d="m 85.456209,52.194322 1.636395,-4.13793"
       id="path1304" /><path
       style="fill:none;stroke:#000000;stroke-width:1.5;stroke-dasharray:none;stroke-opacity:1"
       d="M 87.923282,53.414786 90.428777,50.82967"
       id="path1306" /><circle
       style="fill:#000000;stroke:#000000;stroke-width:1.5;stroke-dasharray:none;stroke-opacity:1"
       id="path1360"
       cx="83.254539"
       cy="55.427101"
       r="1.5654891" /><path
       style="fill:#e9c6af;stroke:none;stroke-width:1.5;stroke-dasharray:none;stroke-opacity:1;fill-opacity:1"
       d="m 79.005929,110.27261 c -13.109538,-5.1879 -12.138649,6.65897 -12.138649,6.65897 l 9.874598,1.09797 c 0,0 0.157578,-5.96766 2.264051,-7.75694 z"
       id="path1679" /><path
       style="fill:#e9c6af;fill-opacity:1;stroke:none;stroke-width:1.5;stroke-dasharray:none;stroke-opacity:1"
       d="m 123.59055,119.61143 c 0,0 13.79272,-7.31267 12.32775,15.73552 l -8.78171,-5.03134 z"
       id="path2080" /><path
       style="fill:none;fill-opacity:1;stroke:#000000;stroke-width:1.5;stroke-dasharray:none;stroke-opacity:1"
       d="m 66.37421,120.66975 c 0,0 -3.087526,-16.64031 13.500944,-10.24872"
       id="path2084" /><path
       style="fill:none;fill-opacity:1;stroke:#000000;stroke-width:1.5;stroke-dasharray:none;stroke-opacity:1"
       d="m 122.61052,120.34342 c 0,0 13.21831,-8.19105 12.88994,15.81887"
       id="path2086" /><path
       style="fill:none;fill-opacity:1;stroke:#000000;stroke-width:3.5;stroke-dasharray:none;stroke-opacity:1"
       d="m 50.007369,278.66229 20.492357,6.32452 15.951036,-15.15097"
       id="path2715" /></g></svg>
