<?xml version="1.0" encoding="UTF-8" standalone="no"?>
<!-- Created with Inkscape (http://www.inkscape.org/) -->

<svg
   width="297mm"
   height="210mm"
   viewBox="0 0 297 210"
   version="1.1"
   id="svg5"
   inkscape:version="1.2.2 (732a01da63, 2022-12-09, custom)"
   sodipodi:docname="logo2.svg"
   xml:space="preserve"
   xmlns:inkscape="http://www.inkscape.org/namespaces/inkscape"
   xmlns:sodipodi="http://sodipodi.sourceforge.net/DTD/sodipodi-0.dtd"
   xmlns="http://www.w3.org/2000/svg"
   xmlns:svg="http://www.w3.org/2000/svg"><sodipodi:namedview
     id="namedview7"
     pagecolor="#ffffff"
     bordercolor="#000000"
     borderopacity="0.25"
     inkscape:showpageshadow="2"
     inkscape:pageopacity="0.0"
     inkscape:pagecheckerboard="0"
     inkscape:deskcolor="#d1d1d1"
     inkscape:document-units="mm"
     showgrid="false"
     inkscape:zoom="0.55794036"
     inkscape:cx="213.28444"
     inkscape:cy="375.48816"
     inkscape:window-width="1920"
     inkscape:window-height="1016"
     inkscape:window-x="0"
     inkscape:window-y="0"
     inkscape:window-maximized="1"
     inkscape:current-layer="layer1" /><defs
     id="defs2" /><g
     inkscape:label="Layer 1"
     inkscape:groupmode="layer"
     id="layer1"><path
       style="fill:#00ffff;stroke:none;stroke-width:0.434507;stroke-dasharray:none;stroke-opacity:1;paint-order:stroke fill markers"
       d="m 225.77417,87.821846 -3.66715,35.875954 27.61823,-0.38809 -3.13568,-37.552852 z"
       id="path2310" /><path
       style="fill:#ffcc00;stroke:none;stroke-width:0.434507;stroke-dasharray:none;stroke-opacity:1;paint-order:stroke fill markers"
       d="m 225.61693,67.476465 c 0,0 -7.60999,12.069378 -5.01242,13.370924 l 7.36973,-1.730048 -8.50576,10.86859 11.73001,-2.833963 18.44427,-1.460993 c 0,0 -5.92147,-2.386638 -1.11056,-11.743853 -3.91018,-5.40052 -6.77459,-2.885444 -3.91018,-5.40052 -3.71255,-4.188657 4.27226,-3.516014 -3.71255,-4.188657 0,0 -8.67737,-1.824723 -15.29254,3.11852 z"
       id="path1885" /><path
       style="fill:#808080;stroke:none;stroke-width:0.0710255;paint-order:stroke fill markers"
       d="m 225.67333,65.213105 -7.5462,-3.457554 14.33767,-14.172817 14.06701,8.842249 -5.53294,6.352268"
       id="path397" /><path
       style="fill:#666666;stroke:none;stroke-width:0.0710255;paint-order:stroke fill markers"
       d="m 225.84803,67.501937 -0.90422,-8.407365 c 0,0 9.13566,-6.279688 15.14715,-1.753072 l 0.0769,6.811761 c 0,0 -8.45472,-0.954041 -14.31983,3.348676 z"
       id="path453" /><path
       style="fill:#666666;stroke:#454545;stroke-width:0.869016;stroke-dasharray:none;stroke-opacity:1;paint-order:stroke fill markers"
       d="m 218.07484,60.662495 -0.17345,7.030126"
       id="path516" /><path
       style="fill:#666666;stroke:none;stroke-width:0.869016;stroke-dasharray:none;stroke-opacity:1;paint-order:stroke fill markers"
       d="m 215.71179,71.285341 2.12713,-3.603212 2.46137,2.946901 z"
       id="path1425" /><path
       style="fill:#ffe680;stroke:none;stroke-width:0.869016;stroke-dasharray:none;stroke-opacity:1;paint-order:stroke fill markers"
       d="m 244.39988,75.615719 c -18.34614,9.085668 -16.641,-5.855732 -16.641,-5.855732 l 13.58449,-4.879152"
       id="path1427" /><path
       style="fill:none;stroke:#000000;stroke-width:0.869016;stroke-dasharray:none;stroke-opacity:1;paint-order:stroke fill markers"
       d="m 228.99787,71.478688 c 0,0 2.4218,-0.743922 3.14081,-1.258228"
       id="path1483" /><path
       style="fill:none;stroke:#000000;stroke-width:0.434507;stroke-dasharray:none;stroke-opacity:1;paint-order:stroke fill markers"
       d="m 239.8111,68.241561 c -2.72462,-2.501655 -4.93576,1.186675 -4.93576,1.186675 0,0 3.29539,2.075644 4.93576,-1.186675 z"
       id="path1755" /><path
       style="fill:none;stroke:#000000;stroke-width:0.434507;stroke-dasharray:none;stroke-opacity:1;paint-order:stroke fill markers"
       d="m 235.55282,68.541758 -0.9601,-0.888"
       id="path1757" /><path
       style="fill:none;stroke:#000000;stroke-width:0.434507;stroke-dasharray:none;stroke-opacity:1;paint-order:stroke fill markers"
       d="m 236.37812,67.876173 -0.83651,-1.390267"
       id="path1759" /><path
       style="fill:none;stroke:#000000;stroke-width:0.434507;stroke-dasharray:none;stroke-opacity:1;paint-order:stroke fill markers"
       d="m 237.5612,67.344978 -0.078,-1.826377"
       id="path1761" /><path
       style="fill:none;stroke:#000000;stroke-width:0.434507;stroke-dasharray:none;stroke-opacity:1;paint-order:stroke fill markers"
       d="m 238.7512,67.411273 0.45119,-1.340441"
       id="path1763" /><path
       style="fill:none;stroke:#000000;stroke-width:0.434507;stroke-dasharray:none;stroke-opacity:1;paint-order:stroke fill markers"
       d="m 239.67491,68.028695 0.86848,-0.964122"
       id="path1765" /><path
       style="fill:none;stroke:#000000;stroke-width:0.434507;stroke-dasharray:none;stroke-opacity:1;paint-order:stroke fill markers"
       id="path1819"
       sodipodi:type="arc"
       sodipodi:cx="237.47"
       sodipodi:cy="68.774971"
       sodipodi:rx="1.0439811"
       sodipodi:ry="0.99706209"
       sodipodi:start="0.73303829"
       sodipodi:end="6.2831853"
       sodipodi:open="true"
       sodipodi:arc-type="arc"
       d="m 238.24583,69.442136 a 1.0439811,0.99706209 0 0 1 -1.32131,0.18297 1.0439811,0.99706209 0 0 1 -0.42916,-1.20745 1.0439811,0.99706209 0 0 1 1.16489,-0.623051 1.0439811,0.99706209 0 0 1 0.85373,0.980366" /><path
       style="fill:none;stroke:#000000;stroke-width:0.434507;stroke-dasharray:none;stroke-opacity:1;paint-order:stroke fill markers"
       d="m 230.27077,74.16248 c 0,0 8.64388,-2.272454 12.58258,-5.791929 0,0 -1.66624,8.339807 -5.29339,10.60119 0,0 -1.69407,0.771048 -3.20807,-0.864055"
       id="path1821" /><path
       style="fill:none;stroke:#000000;stroke-width:0.434507;stroke-dasharray:none;stroke-opacity:1;paint-order:stroke fill markers"
       d="m 227.20069,71.812935 c 0,0 0.73991,9.693536 7.75977,8.023278 0,0 6.84144,-1.750672 8.22368,-3.057898"
       id="path1823" /><path
       style="fill:#ffe680;stroke:none;stroke-width:0.434507;stroke-dasharray:none;stroke-opacity:1;paint-order:stroke fill markers"
       d="m 233.42667,79.65781 0.0184,8.963595 10.50929,-5.689374 -2.29183,-5.131604 c 0,0 -5.97048,2.748014 -8.23587,1.857383 z"
       id="path1854" /><path
       style="fill:none;stroke:#000000;stroke-width:0.434507;stroke-dasharray:none;stroke-opacity:1;paint-order:stroke fill markers"
       d="m 232.9738,80.135029 0.024,8.020641"
       id="path1825" /><path
       style="fill:none;stroke:#000000;stroke-width:0.434507;stroke-dasharray:none;stroke-opacity:1;paint-order:stroke fill markers"
       d="m 239.70758,78.467116 1.687,4.839712"
       id="path1827" /><path
       style="fill:none;stroke:#000000;stroke-width:0.434507;stroke-dasharray:none;stroke-opacity:1;paint-order:stroke fill markers"
       d="m 229.75701,90.203496 13.65577,-8.096492"
       id="path1829" /><path
       style="fill:none;stroke:#000000;stroke-width:0.434507;stroke-dasharray:none;stroke-opacity:1;paint-order:stroke fill markers"
       d="m 229.10306,66.772263 c 0,0 -15.59979,7.96044 -12.00184,11.539565 10.93336,-0.61119 7.0276,3.847632 7.0276,3.847632 l -5.1071,7.105659 7.50204,-3.282385"
       id="path1966" /><path
       style="fill:none;stroke:#000000;stroke-width:0.434507;stroke-dasharray:none;stroke-opacity:1;paint-order:stroke fill markers"
       d="m 231.52734,66.215323 c 0,0 13.58408,-3.563623 11.50359,0.566907 0,0 7.15881,3.440722 2.16463,7.882382 0,0 4.10562,1.334215 -0.86585,5.120389 0,0 0.33992,6.297934 4.90392,6.082024"
       id="path2076" /><path
       style="fill:none;stroke:#000000;stroke-width:0.434507;stroke-dasharray:none;stroke-opacity:1;paint-order:stroke fill markers"
       d="m 227.37523,73.363059 c 0,0 -5.89546,3.622308 0.32275,5.959674 0,0 6.00452,0.426282 0.18159,12.12142"
       id="path2078" /><path
       style="fill:#ffcc00;stroke:none;stroke-width:1.08359;stroke-dasharray:none;stroke-opacity:1;paint-order:stroke fill markers"
       d="m 40.212356,98.500578 c 0,0 -18.977965,30.098832 -12.500111,33.344662 l 18.378774,-4.31444 -21.211794,27.10428 29.252509,-7.06739 45.996626,-3.64344 c 0,0 -14.767065,-5.95184 -2.76952,-29.28703 -9.751292,-13.46791 -16.894592,-7.19577 -9.751292,-13.46791 -9.258422,-10.445751 10.654227,-8.7683 -9.258422,-10.445751 0,0 -21.639786,-4.550511 -38.13677,7.777019 z"
       id="path1885-3" /><path
       style="fill:#808080;stroke:none;stroke-width:0.177124;paint-order:stroke fill markers"
       d="M 40.352993,92.856168 21.534137,84.233671 57.289666,48.889252 92.370231,70.94021 78.572088,86.781616"
       id="path397-6" /><path
       style="fill:#666666;stroke:none;stroke-width:0.177124;paint-order:stroke fill markers"
       d="M 40.788635,98.564113 38.533697,77.597678 c 0,0 22.782644,-15.660396 37.774232,-4.371845 l 0.191756,16.987296 c 0,0 -21.08455,-2.379207 -35.71105,8.350984 z"
       id="path453-7" /><path
       style="fill:#666666;stroke:#454545;stroke-width:2.16717;stroke-dasharray:none;stroke-opacity:1;paint-order:stroke fill markers"
       d="m 21.403743,81.507791 -0.432579,17.53185"
       id="path516-5" /><path
       style="fill:#666666;stroke:none;stroke-width:2.16717;stroke-dasharray:none;stroke-opacity:1;paint-order:stroke fill markers"
       d="m 15.510704,107.99922 5.304674,-8.985741 6.138222,7.349011 z"
       id="path1425-3" /><path
       style="fill:#ffe680;stroke:none;stroke-width:2.16717;stroke-dasharray:none;stroke-opacity:1;paint-order:stroke fill markers"
       d="M 87.053568,118.79841 C 41.30166,141.45639 45.553957,104.19528 45.553957,104.19528 l 33.87724,-12.167721"
       id="path1427-5" /><path
       style="fill:none;stroke:#000000;stroke-width:2.16717;stroke-dasharray:none;stroke-opacity:1;paint-order:stroke fill markers"
       d="m 48.643776,108.4814 c 0,0 6.039513,-1.85521 7.832594,-3.1378"
       id="path1483-6" /><path
       style="fill:none;stroke:#000000;stroke-width:1.08359;stroke-dasharray:none;stroke-opacity:1;paint-order:stroke fill markers"
       d="m 75.609985,100.40859 c -6.794709,-6.238659 -12.30889,2.95935 -12.30889,2.95935 0,0 8.218122,5.17629 12.30889,-2.95935 z"
       id="path1755-2" /><path
       style="fill:none;stroke:#000000;stroke-width:1.08359;stroke-dasharray:none;stroke-opacity:1;paint-order:stroke fill markers"
       d="M 64.990625,101.15723 62.596283,98.942722"
       id="path1757-9" /><path
       style="fill:none;stroke:#000000;stroke-width:1.08359;stroke-dasharray:none;stroke-opacity:1;paint-order:stroke fill markers"
       d="m 67.048773,99.497382 -2.08611,-3.467073"
       id="path1759-1" /><path
       style="fill:none;stroke:#000000;stroke-width:1.08359;stroke-dasharray:none;stroke-opacity:1;paint-order:stroke fill markers"
       d="M 69.999158,98.17268 69.804837,93.618031"
       id="path1761-2" /><path
       style="fill:none;stroke:#000000;stroke-width:1.08359;stroke-dasharray:none;stroke-opacity:1;paint-order:stroke fill markers"
       d="m 72.966791,98.338009 1.125208,-3.342815"
       id="path1763-7" /><path
       style="fill:none;stroke:#000000;stroke-width:1.08359;stroke-dasharray:none;stroke-opacity:1;paint-order:stroke fill markers"
       d="m 75.270352,99.87774 2.165851,-2.404337"
       id="path1765-0" /><path
       style="fill:none;stroke:#000000;stroke-width:1.08359;stroke-dasharray:none;stroke-opacity:1;paint-order:stroke fill markers"
       id="path1819-9"
       sodipodi:type="arc"
       sodipodi:cx="69.771698"
       sodipodi:cy="101.73882"
       sodipodi:rx="2.6034985"
       sodipodi:ry="2.4864912"
       sodipodi:start="0.73303829"
       sodipodi:end="6.2831853"
       sodipodi:open="true"
       sodipodi:arc-type="arc"
       d="m 71.706474,103.40261 a 2.6034985,2.4864912 0 0 1 -3.2951,0.4563 2.6034985,2.4864912 0 0 1 -1.070251,-3.01117 2.6034985,2.4864912 0 0 1 2.905025,-1.553772 2.6034985,2.4864912 0 0 1 2.129048,2.444852" /><path
       style="fill:none;stroke:#000000;stroke-width:1.08359;stroke-dasharray:none;stroke-opacity:1;paint-order:stroke fill markers"
       d="m 51.818167,115.17428 c 0,0 21.556252,-5.66708 31.378662,-14.44401 0,0 -4.155316,20.79796 -13.200774,26.43743 0,0 -4.224687,1.92286 -8.000337,-2.15479"
       id="path1821-3" /><path
       style="fill:none;stroke:#000000;stroke-width:1.08359;stroke-dasharray:none;stroke-opacity:1;paint-order:stroke fill markers"
       d="m 44.161947,109.31495 c 0,0 1.845198,24.1739 19.351413,20.0086 0,0 17.061324,-4.36587 20.50839,-7.62584"
       id="path1823-6" /><path
       style="fill:#ffe680;stroke:none;stroke-width:1.08359;stroke-dasharray:none;stroke-opacity:1;paint-order:stroke fill markers"
       d="m 59.688366,128.87863 0.04591,22.35357 26.208259,-14.18825 -5.715407,-12.79729 c 0,0 -14.889274,6.85303 -20.538758,4.63197 z"
       id="path1854-0" /><path
       style="fill:none;stroke:#000000;stroke-width:1.08359;stroke-dasharray:none;stroke-opacity:1;paint-order:stroke fill markers"
       d="m 58.559032,130.06872 0.05966,20.00203"
       id="path1825-6" /><path
       style="fill:none;stroke:#000000;stroke-width:1.08359;stroke-dasharray:none;stroke-opacity:1;paint-order:stroke fill markers"
       d="m 75.351812,125.90927 4.207086,12.06935"
       id="path1827-2" /><path
       style="fill:none;stroke:#000000;stroke-width:1.08359;stroke-dasharray:none;stroke-opacity:1;paint-order:stroke fill markers"
       d="M 50.536954,155.17765 84.591927,134.98649"
       id="path1829-6" /><path
       style="fill:none;stroke:#000000;stroke-width:1.08359;stroke-dasharray:none;stroke-opacity:1;paint-order:stroke fill markers"
       d="m 48.906098,96.744432 c 0,0 -38.903026,19.851888 -29.930399,28.777578 27.265813,-1.52421 17.525559,9.59528 17.525559,9.59528 l -12.736198,17.72022 18.708747,-8.18568"
       id="path1966-1" /><path
       style="fill:none;stroke:#000000;stroke-width:1.08359;stroke-dasharray:none;stroke-opacity:1;paint-order:stroke fill markers"
       d="m 54.95182,95.355538 c 0,0 33.876196,-8.887036 28.687838,1.413743 0,0 17.852752,8.580539 5.398208,19.657229 0,0 10.238663,3.32729 -2.159282,12.76932 0,0 0.847698,15.70589 12.229513,15.16746"
       id="path2076-8" /><path
       style="fill:none;stroke:#000000;stroke-width:1.08359;stroke-dasharray:none;stroke-opacity:1;paint-order:stroke fill markers"
       d="m 44.597194,113.18068 c 0,0 -14.702194,9.03337 0.804894,14.86234 0,0 14.974186,1.06307 0.452845,30.2286"
       id="path2078-7" /><path
       style="fill:none;stroke:#000000;stroke-width:0.434507;stroke-dasharray:none;stroke-opacity:1;paint-order:stroke fill markers"
       d="m 224.54348,87.555003 -4.83362,24.914367 18.23112,-9.92855"
       id="path2290" /><path
       style="fill:none;stroke:#000000;stroke-width:0.434507;stroke-dasharray:none;stroke-opacity:1;paint-order:stroke fill markers"
       d="M 226.68431,92.268483 226.3931,102.58789"
       id="path2292" /><path
       style="fill:#ff8080;stroke:none;stroke-width:0.434507;stroke-dasharray:none;stroke-opacity:1;paint-order:stroke fill markers"
       d="m 247.77486,87.500746 -12.65677,2.243257 -1.05241,17.995817 13.34213,2.49405 z"
       id="path2424" /><path
       style="fill:none;stroke:#000000;stroke-width:0.434507;stroke-dasharray:none;stroke-opacity:1;paint-order:stroke fill markers"
       d="m 224.017,104.65065 12.62519,-10.450044 1.30268,2.205605"
       id="path2294" /><path
       style="fill:#ff5555;stroke:none;stroke-width:0.434507;stroke-dasharray:none;stroke-opacity:1;paint-order:stroke fill markers"
       d="m 236.60067,111.44407 3.40363,-22.258673 13.78449,0.391413 -1.15707,21.46921 z"
       id="path2422" /><path
       style="fill:none;stroke:#000000;stroke-width:0.434507;stroke-dasharray:none;stroke-opacity:1;paint-order:stroke fill markers"
       d="m 257.87281,100.75154 -11.3995,9.5997 -12.17346,-9.57756 5.5201,-5.716633 5.68619,4.721788 6.1623,-4.400137"
       id="path2296" /><path
       style="fill:none;stroke:#000000;stroke-width:0.434507;stroke-dasharray:none;stroke-opacity:1;paint-order:stroke fill markers"
       d="m 240.31157,95.099118 1.02972,-5.34516 13.39806,0.257986 -0.20373,3.896352"
       id="path2298" /><path
       style="fill:none;stroke:#000000;stroke-width:0.434507;stroke-dasharray:none;stroke-opacity:1;paint-order:stroke fill markers"
       d="m 254.49465,104.29689 -0.91624,8.01303 -15.58483,-0.57077 1.08619,-7.08739"
       id="path2300" /><path
       style="fill:none;stroke:#000000;stroke-width:0.434507;stroke-dasharray:none;stroke-opacity:1;paint-order:stroke fill markers"
       d="m 242.56534,88.316777 -5.91871,1.744997 -0.21314,3.854828"
       id="path2302" /><path
       style="fill:none;stroke:#000000;stroke-width:0.434507;stroke-dasharray:none;stroke-opacity:1;paint-order:stroke fill markers"
       d="m 235.7005,103.62979 -0.31611,5.57269 3.14286,0.75403"
       id="path2304" /><path
       style="fill:#00ffff;stroke:none;stroke-width:0.606447;stroke-dasharray:none;stroke-opacity:1;paint-order:stroke fill markers"
       d="m 133.52057,104.22961 -5.11828,50.07242 38.54705,-0.54165 -4.37651,-52.41289 z"
       id="path2310-9" /><path
       style="fill:#ffcc00;stroke:none;stroke-width:0.606447;stroke-dasharray:none;stroke-opacity:1;paint-order:stroke fill markers"
       d="m 133.30112,75.833351 c 0,0 -10.62134,16.845351 -6.9959,18.66194 l 10.286,-2.414652 -11.87156,15.169401 16.3717,-3.95539 25.74284,-2.03913 c 0,0 -8.26465,-3.331043 -1.55001,-16.391002 -5.45749,-7.537563 -9.45537,-4.027242 -5.45749,-7.537563 -5.18164,-5.846146 5.96283,-4.907331 -5.18164,-5.846146 0,0 -12.1111,-2.546782 -21.34394,4.352542 z"
       id="path1885-2" /><path
       style="fill:#808080;stroke:none;stroke-width:0.0991308;paint-order:stroke fill markers"
       d="m 133.37984,72.674362 -10.53231,-4.825741 20.01122,-19.781138 19.63348,12.341214 -7.72238,8.865927"
       id="path397-0" /><path
       style="fill:#666666;stroke:none;stroke-width:0.0991308;paint-order:stroke fill markers"
       d="m 133.62366,75.86891 -1.26203,-11.734243 c 0,0 12.75073,-8.76462 21.14104,-2.446775 l 0.10732,9.507239 c 0,0 -11.80035,-1.331566 -19.98633,4.673779 z"
       id="path453-2" /><path
       style="fill:#666666;stroke:#454545;stroke-width:1.21289;stroke-dasharray:none;stroke-opacity:1;paint-order:stroke fill markers"
       d="m 122.77455,66.323033 -0.2421,9.812014"
       id="path516-3" /><path
       style="fill:#666666;stroke:none;stroke-width:1.21289;stroke-dasharray:none;stroke-opacity:1;paint-order:stroke fill markers"
       d="m 119.4764,81.149439 2.96886,-5.029034 3.43537,4.113013 z"
       id="path1425-7" /><path
       style="fill:#ffe680;stroke:none;stroke-width:1.21289;stroke-dasharray:none;stroke-opacity:1;paint-order:stroke fill markers"
       d="M 159.51666,87.193398 C 133.91078,99.87435 136.29065,79.020494 136.29065,79.020494 l 18.96001,-6.809884"
       id="path1427-59" /><path
       style="fill:none;stroke:#000000;stroke-width:1.21289;stroke-dasharray:none;stroke-opacity:1;paint-order:stroke fill markers"
       d="m 138.01993,81.419302 c 0,0 3.38012,-1.038302 4.38364,-1.756126"
       id="path1483-2" /><path
       style="fill:none;stroke:#000000;stroke-width:0.606447;stroke-dasharray:none;stroke-opacity:1;paint-order:stroke fill markers"
       d="m 153.11205,76.901206 c -3.80277,-3.49158 -6.88889,1.656254 -6.88889,1.656254 0,0 4.59942,2.896998 6.88889,-1.656254 z"
       id="path1755-28" /><path
       style="fill:none;stroke:#000000;stroke-width:0.606447;stroke-dasharray:none;stroke-opacity:1;paint-order:stroke fill markers"
       d="M 147.16874,77.320196 145.8287,76.080805"
       id="path1757-97" /><path
       style="fill:none;stroke:#000000;stroke-width:0.606447;stroke-dasharray:none;stroke-opacity:1;paint-order:stroke fill markers"
       d="m 148.32062,76.39123 -1.16753,-1.940409"
       id="path1759-3" /><path
       style="fill:none;stroke:#000000;stroke-width:0.606447;stroke-dasharray:none;stroke-opacity:1;paint-order:stroke fill markers"
       d="m 149.97185,75.649836 -0.10875,-2.54909"
       id="path1761-6" /><path
       style="fill:none;stroke:#000000;stroke-width:0.606447;stroke-dasharray:none;stroke-opacity:1;paint-order:stroke fill markers"
       d="M 151.63274,75.742367 152.26249,73.8715"
       id="path1763-1" /><path
       style="fill:none;stroke:#000000;stroke-width:0.606447;stroke-dasharray:none;stroke-opacity:1;paint-order:stroke fill markers"
       d="m 152.92198,76.604111 1.21214,-1.345637"
       id="path1765-2" /><path
       style="fill:none;stroke:#000000;stroke-width:0.606447;stroke-dasharray:none;stroke-opacity:1;paint-order:stroke fill markers"
       id="path1819-93"
       sodipodi:type="arc"
       sodipodi:cx="149.84456"
       sodipodi:cy="77.645699"
       sodipodi:rx="1.4570946"
       sodipodi:ry="1.3916093"
       sodipodi:start="0.73303829"
       sodipodi:end="6.2831853"
       sodipodi:open="true"
       sodipodi:arc-type="arc"
       d="m 150.92739,78.576867 a 1.4570946,1.3916093 0 0 1 -1.84416,0.255374 1.4570946,1.3916093 0 0 1 -0.59899,-1.685251 1.4570946,1.3916093 0 0 1 1.62585,-0.869598 1.4570946,1.3916093 0 0 1 1.19156,1.368307" /><path
       style="fill:none;stroke:#000000;stroke-width:0.606447;stroke-dasharray:none;stroke-opacity:1;paint-order:stroke fill markers"
       d="m 139.79653,85.165094 c 0,0 12.06435,-3.17169 17.56164,-8.08385 0,0 -2.32561,11.639946 -7.38806,14.796184 0,0 -2.36442,1.076157 -4.47752,-1.205974"
       id="path1821-1" /><path
       style="fill:none;stroke:#000000;stroke-width:0.606447;stroke-dasharray:none;stroke-opacity:1;paint-order:stroke fill markers"
       d="m 135.5116,81.885812 c 0,0 1.03269,13.529361 10.83036,11.198166 0,0 9.54868,-2.443429 11.47788,-4.267937"
       id="path1823-9" /><path
       style="fill:#ffe680;stroke:none;stroke-width:0.606447;stroke-dasharray:none;stroke-opacity:1;paint-order:stroke fill markers"
       d="m 144.20124,92.834978 0.0257,12.510582 14.66792,-7.940715 -3.19874,-7.16223 c 0,0 -8.33304,3.835423 -11.49488,2.592363 z"
       id="path1854-4" /><path
       style="fill:none;stroke:#000000;stroke-width:0.606447;stroke-dasharray:none;stroke-opacity:1;paint-order:stroke fill markers"
       d="m 143.56918,93.501032 0.0334,11.194508"
       id="path1825-7" /><path
       style="fill:none;stroke:#000000;stroke-width:0.606447;stroke-dasharray:none;stroke-opacity:1;paint-order:stroke fill markers"
       d="m 152.96756,91.173121 2.35458,6.754831"
       id="path1827-8" /><path
       style="fill:none;stroke:#000000;stroke-width:0.606447;stroke-dasharray:none;stroke-opacity:1;paint-order:stroke fill markers"
       d="M 139.07948,107.5537 158.13896,96.253347"
       id="path1829-4" /><path
       style="fill:none;stroke:#000000;stroke-width:0.606447;stroke-dasharray:none;stroke-opacity:1;paint-order:stroke fill markers"
       d="m 138.16673,74.850492 c 0,0 -21.77277,11.11047 -16.75108,16.105888 15.2598,-0.853044 9.8085,5.370178 9.8085,5.370178 l -7.12804,9.917432 10.47068,-4.58126"
       id="path1966-5" /><path
       style="fill:none;stroke:#000000;stroke-width:0.606447;stroke-dasharray:none;stroke-opacity:1;paint-order:stroke fill markers"
       d="m 141.55034,74.073173 c 0,0 18.95942,-4.973789 16.05567,0.791227 0,0 9.99161,4.802252 3.02119,11.001519 0,0 5.73026,1.862178 -1.20848,7.146585 0,0 0.47444,8.790086 6.84447,8.488736"
       id="path2076-0" /><path
       style="fill:none;stroke:#000000;stroke-width:0.606447;stroke-dasharray:none;stroke-opacity:1;paint-order:stroke fill markers"
       d="m 135.75518,84.049336 c 0,0 -8.22834,5.055688 0.45048,8.317973 0,0 8.38057,0.594971 0.25344,16.917991"
       id="path2078-3" /><path
       style="fill:none;stroke:#000000;stroke-width:0.606447;stroke-dasharray:none;stroke-opacity:1;paint-order:stroke fill markers"
       d="m 131.80288,103.85717 -6.74633,34.77323 25.44536,-13.85737"
       id="path2290-6" /><path
       style="fill:none;stroke:#000000;stroke-width:0.606447;stroke-dasharray:none;stroke-opacity:1;paint-order:stroke fill markers"
       d="m 134.79087,110.43582 -0.40643,14.4029"
       id="path2292-1" /><path
       style="fill:#ff8080;stroke:none;stroke-width:0.606447;stroke-dasharray:none;stroke-opacity:1;paint-order:stroke fill markers"
       d="m 164.22715,103.78145 -17.66517,3.13092 -1.46888,25.11697 18.62176,3.48094 z"
       id="path2424-0" /><path
       style="fill:none;stroke:#000000;stroke-width:0.606447;stroke-dasharray:none;stroke-opacity:1;paint-order:stroke fill markers"
       d="m 131.06806,127.71774 17.62114,-14.58524 1.81813,3.07839"
       id="path2294-6" /><path
       style="fill:#ff5555;stroke:none;stroke-width:0.606447;stroke-dasharray:none;stroke-opacity:1;paint-order:stroke fill markers"
       d="m 148.63124,137.19938 4.75048,-31.06665 19.23913,0.54629 -1.61491,29.9648 z"
       id="path2422-3" /><path
       style="fill:none;stroke:#000000;stroke-width:0.606447;stroke-dasharray:none;stroke-opacity:1;paint-order:stroke fill markers"
       d="m 178.32096,122.27571 -15.91039,13.39839 -16.99062,-13.36748 7.70447,-7.97877 7.93626,6.59025 8.60078,-6.14132"
       id="path2296-2" /><path
       style="fill:none;stroke:#000000;stroke-width:0.606447;stroke-dasharray:none;stroke-opacity:1;paint-order:stroke fill markers"
       d="m 153.81056,114.38657 1.43721,-7.46029 18.69979,0.36007 -0.28434,5.43818"
       id="path2298-0" /><path
       style="fill:none;stroke:#000000;stroke-width:0.606447;stroke-dasharray:none;stroke-opacity:1;paint-order:stroke fill markers"
       d="m 173.60603,127.224 -1.2788,11.18386 -21.75191,-0.79664 1.51601,-9.89193"
       id="path2300-6" /><path
       style="fill:none;stroke:#000000;stroke-width:0.606447;stroke-dasharray:none;stroke-opacity:1;paint-order:stroke fill markers"
       d="m 156.95617,104.92038 -8.26079,2.43551 -0.29749,5.38022"
       id="path2302-1" /><path
       style="fill:none;stroke:#000000;stroke-width:0.606447;stroke-dasharray:none;stroke-opacity:1;paint-order:stroke fill markers"
       d="m 147.37485,126.29291 -0.4412,7.77786 4.38654,1.05239"
       id="path2304-5" /><path
       style="fill:#ff9955;stroke:none;stroke-width:0.885728;stroke-dasharray:none;stroke-opacity:1;paint-order:stroke fill markers"
       d="m 235.67594,138.75246 c 0,0 -6.37947,23.70689 19.55246,15.29975 8.91175,-32.881 22.27745,-5.76653 8.91175,-32.881 -4.75267,-24.805098 -12.4749,-2.36436 -4.75267,-24.805098"
       id="path3191" /><path
       style="fill:none;stroke:#000000;stroke-width:0.434507;stroke-dasharray:none;stroke-opacity:1;paint-order:stroke fill markers"
       d="m 224.43442,124.45847 23.82817,-1.31262"
       id="path2306" /><path
       style="fill:#0000ff;stroke:none;stroke-width:0.434507;stroke-dasharray:none;stroke-opacity:1;paint-order:stroke fill markers"
       d="m 239.046,124.01693 8.03219,-0.25735 -1.8671,22.32273 -7.67657,1.34006 z"
       id="path2957" /><path
       style="fill:none;stroke:#000000;stroke-width:0.434507;stroke-dasharray:none;stroke-opacity:1;paint-order:stroke fill markers"
       d="m 238.9015,123.38445 -0.90294,21.55669"
       id="path2308" /><path
       style="fill:#0000ff;stroke:none;stroke-width:0.434507;stroke-dasharray:none;stroke-opacity:1;paint-order:stroke fill markers"
       d="m 224.09182,124.7297 -1.59933,23.25569 8.15177,-0.0975 2.67546,-23.59931 z"
       id="path2901" /><path
       style="fill:#ff9955;stroke:none;stroke-width:0.885728;stroke-dasharray:none;stroke-opacity:1;paint-order:stroke fill markers"
       d="m 215.2652,152.36892 c 0,0 -24.15965,-3.8975 2.69093,-38.74427"
       id="path3240" /><path
       style="fill:none;stroke:#000000;stroke-width:0.885728;stroke-dasharray:none;stroke-opacity:1;paint-order:stroke fill markers"
       d="m 217.41903,99.982666 c 0,0 -10.11986,13.541364 -0.0859,18.871394 0,0 -13.95621,22.0267 -1.67478,26.32044"
       id="path3013" /><path
       style="fill:none;stroke:#000000;stroke-width:0.885728;stroke-dasharray:none;stroke-opacity:1;paint-order:stroke fill markers"
       d="m 214.78149,140.7252 c 0,0 9.50768,13.61258 40.30992,-1.57493"
       id="path3015" /><path
       style="fill:none;stroke:#000000;stroke-width:0.885728;stroke-dasharray:none;stroke-opacity:1;paint-order:stroke fill markers"
       d="m 247.57195,143.83484 c 0,0 21.03376,-2.69791 8.17653,-22.94845 0,0 -8.11772,-2.68474 -2.55086,-12.38203"
       id="path3017" /><path
       style="fill:#ff6600;stroke:none;stroke-width:0.885728;stroke-dasharray:none;stroke-opacity:1;paint-order:stroke fill markers"
       d="m 238.04647,145.73018 c 0,0 35.40324,22.52665 32.72469,-16.95825"
       id="path3242" /><path
       style="fill:none;stroke:#000000;stroke-width:0.885728;stroke-dasharray:none;stroke-opacity:1;paint-order:stroke fill markers"
       d="m 259.41147,101.83544 c 0,0 -9.71354,11.52065 -1.95881,15.62788 0,0 7.38403,6.75792 5.37336,19.75213 0,0 -6.99396,17.18193 -30.84558,18.80098"
       id="path3019" /><path
       style="fill:none;stroke:#000000;stroke-width:0.885728;stroke-dasharray:none;stroke-opacity:1;paint-order:stroke fill markers"
       d="m 238.79641,152.14525 c 0,0 -18.99988,10.21427 -33.16195,-4.69153 0,0 -7.67735,-10.67708 2.79155,-21.00512 0,0 3.89284,-5.08082 0.86835,-11.79772"
       id="path3021" /><path
       style="fill:none;stroke:#000000;stroke-width:0.885728;stroke-dasharray:none;stroke-opacity:1;paint-order:stroke fill markers"
       d="m 208.83154,107.50367 c 0,0 -5.52118,10.32571 8.65405,3.61036"
       id="path3023" /><path
       style="fill:none;stroke:#000000;stroke-width:0.885728;stroke-dasharray:none;stroke-opacity:1;paint-order:stroke fill markers"
       d="m 230.72901,160.03233 c 0,0 38.03072,-1.39463 36.69646,-22.48719 0,0 -0.76077,-6.316 -1.88915,-7.62471"
       id="path3025" /></g></svg>
