<?xml version="1.0" encoding="UTF-8" standalone="no"?>
<!-- Created with Inkscape (http://www.inkscape.org/) -->

<svg
   width="297mm"
   height="210mm"
   viewBox="0 0 297 210"
   version="1.1"
   id="svg5"
   inkscape:version="1.2.2 (732a01da63, 2022-12-09, custom)"
   sodipodi:docname="logo.svglogo.svg"
   xmlns:inkscape="http://www.inkscape.org/namespaces/inkscape"
   xmlns:sodipodi="http://sodipodi.sourceforge.net/DTD/sodipodi-0.dtd"
   xmlns="http://www.w3.org/2000/svg"
   xmlns:svg="http://www.w3.org/2000/svg">
  <sodipodi:namedview
     id="namedview7"
     pagecolor="#ffffff"
     bordercolor="#000000"
     borderopacity="0.25"
     inkscape:showpageshadow="2"
     inkscape:pageopacity="0.0"
     inkscape:pagecheckerboard="0"
     inkscape:deskcolor="#d1d1d1"
     inkscape:document-units="mm"
     showgrid="false"
     inkscape:zoom="0.65580011"
     inkscape:cx="809.69794"
     inkscape:cy="395.69984"
     inkscape:window-width="1920"
     inkscape:window-height="1009"
     inkscape:window-x="0"
     inkscape:window-y="0"
     inkscape:window-maximized="1"
     inkscape:current-layer="layer1"
     showguides="true" />
  <defs
     id="defs2" />
  <g
     inkscape:label="Layer 1"
     inkscape:groupmode="layer"
     id="layer1">
    <rect
       style="fill:#000000;stroke:#000000;stroke-width:1.49191"
       id="rect256"
       width="19.177162"
       height="19.177162"
       x="348.09741"
       y="62.482147"
       ry="0" />
    <path
       style="fill:none;stroke:#000000;stroke-width:3.5983;stroke-dasharray:3.5983, 3.5983;stroke-dashoffset:0"
       id="path465"
       sodipodi:type="arc"
       sodipodi:cx="338.78534"
       sodipodi:cy="66.840675"
       sodipodi:rx="19.517509"
       sodipodi:ry="19.517509"
       sodipodi:start="2.5464354"
       sodipodi:end="5.9428461"
       sodipodi:arc-type="arc"
       d="m 322.62366,77.782952 a 19.517509,19.517509 0 0 1 -0.60889,-20.926323 19.517509,19.517509 0 0 1 18.68644,-9.439203 19.517509,19.517509 0 0 1 16.48214,12.908171"
       sodipodi:open="true" />
    <rect
       style="fill:#000000;stroke:#000000;stroke-width:1.5042;stroke-dasharray:none"
       id="rect256-3"
       width="19.473001"
       height="19.177162"
       x="437.58633"
       y="-15.635466"
       ry="0"
       transform="matrix(0.98480775,0.17364818,0,1,0,0)" />
    <path
       style="fill:none;stroke:#000000;stroke-width:3.5983;stroke-dasharray:none"
       id="path465-6"
       sodipodi:type="arc"
       sodipodi:cx="423.8306"
       sodipodi:cy="63.843727"
       sodipodi:rx="19.517509"
       sodipodi:ry="19.517509"
       sodipodi:start="2.6860617"
       sodipodi:end="5.9428461"
       sodipodi:arc-type="arc"
       d="m 406.30334,72.430244 a 19.517509,19.517509 0 0 1 1.75731,-20.086162 19.517509,19.517509 0 0 1 18.58742,-7.813434 19.517509,19.517509 0 0 1 15.58054,12.798001"
       sodipodi:open="true" />
    <path
       style="fill:none;stroke:#000000;stroke-width:3.20689;stroke-dasharray:none"
       d="m 446.96416,66.788929 17.3956,-10.04337"
       id="path1151" />
    <path
       style="fill:none;stroke:#000000;stroke-width:2.79841;stroke-dasharray:none"
       d="m 449.86285,82.577389 15.17985,-8.76408"
       id="path1151-7" />
    <path
       style="fill:#999999;stroke:none;stroke-width:8.99054;stroke-dasharray:none"
       d="m 131.02156,68.195459 39.65832,-24.355493 47.04279,9.061487 -38.37409,23.890941 z"
       id="path1402-9"
       sodipodi:nodetypes="ccccc" />
    <path
       style="fill:none;stroke:#000000;stroke-width:4.49483;stroke-dasharray:4.49483, 8.98966;stroke-dashoffset:0"
       id="path465-6-3-3"
       sodipodi:type="arc"
       sodipodi:cx="124.60178"
       sodipodi:cy="79.514488"
       sodipodi:rx="48.760746"
       sodipodi:ry="48.760746"
       sodipodi:start="2.6860617"
       sodipodi:end="5.9428461"
       sodipodi:arc-type="arc"
       d="M 80.81329,100.96625 A 48.760746,48.760746 0 0 1 85.203594,50.784835 48.760746,48.760746 0 0 1 131.6407,31.264472 48.760746,48.760746 0 0 1 170.56569,63.237817"
       sodipodi:open="true" />
    <rect
       style="fill:#cccccc;stroke:none;stroke-width:3.75795;stroke-dasharray:none"
       id="rect256-3-5-0"
       width="48.649551"
       height="47.910454"
       x="133.06078"
       y="45.073845"
       ry="0"
       transform="matrix(0.98480775,0.17364818,0,1,0,0)" />
    <path
       style="fill:#666666;stroke:none;stroke-width:4.49483;stroke-dasharray:none"
       d="M 178.93334,76.607769 178.61745,124.43147 217.69953,98.184155 217.72203,52.903 Z"
       id="path1522"
       sodipodi:nodetypes="ccccc" />
  </g>
</svg>
