<?xml version="1.0" encoding="UTF-8" standalone="no"?>
<!-- Created with Inkscape (http://www.inkscape.org/) -->

<svg
   width="210mm"
   height="297mm"
   viewBox="0 0 210 297"
   version="1.1"
   id="svg5"
   xml:space="preserve"
   inkscape:version="1.2.2 (732a01da63, 2022-12-09, custom)"
   sodipodi:docname="bw(1).svg"
   xmlns:inkscape="http://www.inkscape.org/namespaces/inkscape"
   xmlns:sodipodi="http://sodipodi.sourceforge.net/DTD/sodipodi-0.dtd"
   xmlns="http://www.w3.org/2000/svg"
   xmlns:svg="http://www.w3.org/2000/svg"><sodipodi:namedview
     id="namedview7"
     pagecolor="#ffffff"
     bordercolor="#000000"
     borderopacity="0.25"
     inkscape:showpageshadow="2"
     inkscape:pageopacity="0.0"
     inkscape:pagecheckerboard="0"
     inkscape:deskcolor="#d1d1d1"
     inkscape:document-units="mm"
     showgrid="false"
     inkscape:zoom="1.0913319"
     inkscape:cx="399.05368"
     inkscape:cy="577.73443"
     inkscape:window-width="1846"
     inkscape:window-height="1016"
     inkscape:window-x="0"
     inkscape:window-y="0"
     inkscape:window-maximized="1"
     inkscape:current-layer="layer1" /><defs
     id="defs2" /><g
     inkscape:label="Layer 1"
     inkscape:groupmode="layer"
     id="layer1"><rect
       style="fill:#000000;stroke:#4c4c4c;stroke-width:0.79375;stroke-dasharray:none;stroke-opacity:1"
       id="rect1320"
       width="197.11342"
       height="189.4704"
       x="6.9008784"
       y="45.31955" /><path
       style="fill:#ffffff;stroke:#ffffff;stroke-width:4.96093512;stroke-dasharray:none;stroke-opacity:1"
       d="m 139.22708,186.67664 c -5.64472,-22.79825 -30.26691,-24.57131 -30.26691,-24.57131 -33.404579,-4.88502 -45.247761,21.01766 -45.247761,21.01766 0,0 31.721708,-0.92573 75.514671,3.55365 z"
       id="path270"
       sodipodi:nodetypes="cccc" /><path
       style="fill:none;stroke:#ffffff;stroke-width:4.96093762;stroke-dasharray:none;stroke-opacity:1"
       d="m 98.591666,102.9476 c 0,0 -18.549282,8.9131 -21.023747,23.826 0,0 -3.847944,17.88535 3.126686,21.20887 0,0 4.96656,-7.46673 16.068239,-9.63124 0,0 12.456786,-6.09637 1.828822,-35.40363 z"
       id="path980"
       sodipodi:nodetypes="ccccc" /><path
       style="fill:none;stroke:#ffffff;stroke-width:4.96093762;stroke-dasharray:none;stroke-opacity:1"
       d="m 116.0452,142.36223 c -21.715691,-12.61986 -7.89788,-35.45707 -7.89788,-35.45707 0,0 29.93451,16.49939 7.89788,35.45707 z"
       id="path982" /><path
       style="fill:none;stroke:#ffffff;stroke-width:4.96093512;stroke-dasharray:none;stroke-opacity:1"
       d="m 109.80659,99.326575 c 0,0 25.53718,-24.76596 50.64247,-13.463034 0,0 10.82845,4.359145 13.06274,14.232779 0,0 -18.55005,32.7762 -63.70521,-0.769745 z"
       id="path984" /><path
       style="fill:none;stroke:#ffffff;stroke-width:4.96093762;stroke-dasharray:none;stroke-opacity:1"
       d="m 101.32471,100.26619 c 0,0 19.97202,-13.205233 -0.21667,-24.327478 0,0 -12.887209,-4.387788 -9.698827,-7.388877 0,0 -14.880583,18.055744 -7.048813,25.804517 0,0 8.832129,6.825538 16.96431,5.911838 z"
       id="path986" /><path
       style="fill:none;stroke:#ffffff;stroke-width:4.96093762;stroke-dasharray:none;stroke-opacity:1"
       d="m 115.68236,140.71332 c 0,0 3.13183,15.07962 -5.27651,21.3631"
       id="path988" /><path
       style="fill:none;stroke:#ffffff;stroke-width:4.96093762;stroke-dasharray:none;stroke-opacity:1"
       d="m 120.1862,110.88531 c 0,0 16.37231,12.07781 13.38812,43.69353 0,0 -2.80572,11.79136 -8.23353,15.36461"
       id="path990" /><path
       style="fill:none;stroke:#ffffff;stroke-width:4.96093512;stroke-dasharray:none;stroke-opacity:1"
       d="m 114,156.89835 c 0,0 14.50248,7.05039 26.7999,6.11245"
       id="path1004"
       sodipodi:nodetypes="cc" /><path
       style="fill:none;stroke:#ffffff;stroke-width:4.96093512;stroke-dasharray:none;stroke-opacity:1"
       d="m 116.02408,153.08343 22.15708,2.97245"
       id="path1006" /><path
       style="fill:none;stroke:#ffffff;stroke-width:4.96093512;stroke-dasharray:none;stroke-opacity:1"
       d="m 117.61402,146.18411 c 0,0 20.01303,3.05013 25.61271,-2.94617"
       id="path1008"
       sodipodi:nodetypes="cc" /><path
       style="fill:none;stroke:#ffffff;stroke-width:5.78027988;stroke-dasharray:none;stroke-opacity:1"
       d="m 120.6381,136.36323 c 0,0 6.78607,3.38262 18.97625,-3.59936"
       id="path1010"
       sodipodi:nodetypes="cc" /><path
       style="fill:none;stroke:#ffffff;stroke-width:4.96093512;stroke-dasharray:none;stroke-opacity:1"
       d="m 124.2597,125.90106 9.97865,-0.86376"
       id="path1012" /><path
       style="fill:#ffffff;stroke:#ffffff;stroke-width:4.96093762;stroke-dasharray:none;stroke-opacity:1"
       d="m 85.509861,164.85056 c 0,0 0.760188,-8.3841 -10.247476,-10.61472 0,0 -19.452726,1.26331 -13.250035,16.36718 0,0 4.370895,4.1388 7.33526,3.83325"
       id="path1014" /><path
       style="fill:none;stroke:#ffffff;stroke-width:5.50233007;stroke-dasharray:none;stroke-opacity:1"
       d="m 64.970988,180.94605 c 0,0 -6.872879,-9.21674 -14.992785,2.4657 0,0 14.318855,-17.38312 -17.28087,-8.66846 0,0 19.750797,-8.10785 -9.406578,-18.72992 0,0 36.056108,7.46409 27.408778,-14.1851 l -8.231079,-25.65191 c 0,0 7.302917,27.038 20.170495,27.67945 0,0 6.937513,-0.37271 1.077254,-33.90685 0,0 4.736468,27.4546 13.849172,32.96508"
       id="path1016" /><path
       style="fill:none;stroke:#ffffff;stroke-width:4.96093512;stroke-dasharray:none;stroke-opacity:1"
       d="m 101.93689,138.62706 c 0,0 -16.506723,8.69552 -8.489863,10.38262 0,0 5.43222,0.0169 10.218093,-1.58574 0,0 -14.956964,5.31985 1.69151,6.73078 0,0 -13.632695,4.9291 -8.025668,8.00438"
       id="path1018" /><path
       style="fill:none;stroke:#ffffff;stroke-width:4.96093762;stroke-dasharray:none;stroke-opacity:1"
       d="m 42.250408,191.67013 c 0,0 -6.143199,-16.36056 123.082862,-2.13"
       id="path1040" /><path
       style="fill:none;stroke:#ffffff;stroke-width:4.96093512;stroke-dasharray:none;stroke-opacity:1"
       d="m 46.887622,206.08616 c 0,0 15.475733,0.76481 19.776119,-6.09818 0,0 5.690899,11.59606 27.240428,4.4348 0,0 11.547921,-5.34508 15.887231,0.56382 0,0 4.42487,10.48498 20.48062,4.615 0,0 14.7021,-5.0591 25.52101,-4.75796"
       id="path1042"
       sodipodi:nodetypes="cccccc" /><path
       style="fill:none;stroke:#ffffff;stroke-width:4.96093512;stroke-dasharray:none;stroke-opacity:1"
       d="m 149.36341,218.38575 c 0,0 -7.0664,-7.58532 -18.69618,-0.27062 0,0 -10.57424,16.39562 -27.05838,-1.35688 0,0 -17.489105,11.21953 -24.234577,-3.23505 0,0 -11.199973,-6.02781 -20.119508,8.56486"
       id="path1044"
       sodipodi:nodetypes="ccccc" /><path
       style="fill:none;stroke:#ffffff;stroke-width:4.96093512;stroke-dasharray:none;stroke-opacity:1"
       d="m 41.26912,191.14559 c 0,0 14.46193,4.863 23.584916,-1.12009 0,0 3.43884,11.66723 14.582384,0.86155 0,0 7.699563,10.24307 16.845319,-0.0566 0,0 5.206751,11.787 17.477001,0.52667 0,0 5.30295,10.62206 18.40609,-0.0514 0,0 10.36279,17.69069 33.86691,2.73666"
       id="path1046" /><g
       id="g1237"
       transform="translate(224.24978,-38.904979)"><path
         style="fill:none;stroke:#4c4c4c;stroke-width:0.79375;stroke-dasharray:none;stroke-opacity:1"
         d="m 48.0042,165.80685 2.437744,29.3146"
         id="path1072" /><path
         style="fill:none;stroke:#4c4c4c;stroke-width:0.79375;stroke-dasharray:none;stroke-opacity:1"
         d="m 46.477216,165.18695 1.019458,30.67412"
         id="path1128" /><path
         style="fill:none;stroke:#4c4c4c;stroke-width:0.79375;stroke-dasharray:none;stroke-opacity:1"
         d="m 44.354564,170.13148 c 0,0 10.07708,-6.90045 16.083664,4.51118 0,0 2.333446,13.52914 -15.854504,11.29632"
         id="path1130" /><path
         style="fill:none;stroke:#4c4c4c;stroke-width:0.79375;stroke-dasharray:none;stroke-opacity:1"
         d="m 45.114752,182.6889 c 0,0 16.655825,11.03557 26.229048,12.17034"
         id="path1132" /><path
         style="fill:none;stroke:#4c4c4c;stroke-width:0.79375;stroke-dasharray:none;stroke-opacity:1"
         d="m 45.36668,180.76088 c 0,0 13.087715,14.50306 21.484299,14.9085"
         id="path1134" /><path
         style="fill:none;stroke:#4c4c4c;stroke-width:0.79375;stroke-dasharray:none;stroke-opacity:1"
         d="m 73.957817,167.83329 4.390726,27.24263"
         id="path1136" /><path
         style="fill:none;stroke:#4c4c4c;stroke-width:0.79375;stroke-dasharray:none;stroke-opacity:1"
         d="m 70.990515,168.17702 15.372683,-0.54425"
         id="path1138" /><path
         style="fill:none;stroke:#4c4c4c;stroke-width:0.79375;stroke-dasharray:none;stroke-opacity:1"
         d="m 72.095174,169.55491 c 0,0 4.123375,-4.49062 15.134711,-3.34189"
         id="path1140" /><path
         style="fill:none;stroke:#4c4c4c;stroke-width:0.79375;stroke-dasharray:none;stroke-opacity:1"
         d="m 74.386754,177.69443 9.037053,-1.62321"
         id="path1142" /><path
         style="fill:none;stroke:#4c4c4c;stroke-width:0.79375;stroke-dasharray:none;stroke-opacity:1"
         d="m 74.834786,180.26658 c 0,0 2.15056,-3.22511 11.457167,-2.3261"
         id="path1144" /><path
         style="fill:none;stroke:#4c4c4c;stroke-width:0.79375;stroke-dasharray:none;stroke-opacity:1"
         d="m 75.788143,194.79094 c 0,0 8.214434,-4.09547 14.906289,-1.33235"
         id="path1146" /><path
         style="fill:none;stroke:#4c4c4c;stroke-width:0.79375;stroke-dasharray:none;stroke-opacity:1"
         d="m 94.450568,165.99268 1.78185,26.2004 10.807892,-0.73154"
         id="path1148" /><path
         style="fill:none;stroke:#4c4c4c;stroke-width:0.79375;stroke-dasharray:none;stroke-opacity:1"
         d="m 91.230602,166.80354 4.601525,25.53643"
         id="path1150" /><path
         style="fill:none;stroke:#4c4c4c;stroke-width:0.79375;stroke-dasharray:none;stroke-opacity:1"
         d="m 97.65731,189.99331 9.33158,-0.48035"
         id="path1152" /><path
         style="fill:none;stroke:#4c4c4c;stroke-width:0.79375;stroke-dasharray:none;stroke-opacity:1"
         d="m 111.69618,193.80967 7.86996,-27.45636"
         id="path1154" /><path
         style="fill:none;stroke:#4c4c4c;stroke-width:0.79375;stroke-dasharray:none;stroke-opacity:1"
         d="m 114.12217,193.7634 7.86262,-29.24336 5.93093,31.67155"
         id="path1156" /><path
         style="fill:none;stroke:#4c4c4c;stroke-width:0.79375;stroke-dasharray:none;stroke-opacity:1"
         d="m 127.17463,181.92944 -12.94156,0.56115"
         id="path1158" /><path
         style="fill:none;stroke:#4c4c4c;stroke-width:0.79375;stroke-dasharray:none;stroke-opacity:1"
         d="m 116.03109,169.74147 c 0,0 6.26291,-7.59307 11.40208,25.36089"
         id="path1160" /><path
         style="fill:none;stroke:#4c4c4c;stroke-width:0.79375;stroke-dasharray:none;stroke-opacity:1"
         d="m 133.5154,167.72238 16.30548,20.77773"
         id="path1162" /><path
         style="fill:none;stroke:#4c4c4c;stroke-width:0.79375;stroke-dasharray:none;stroke-opacity:1"
         d="m 134.07654,165.11497 9.13328,13.66355 7.03191,7.30662"
         id="path1164" /><path
         style="fill:none;stroke:#4c4c4c;stroke-width:0.79375;stroke-dasharray:none;stroke-opacity:1"
         d="m 151.03424,166.02646 -15.96908,25.65542"
         id="path1166" /><path
         style="fill:none;stroke:#4c4c4c;stroke-width:0.79375;stroke-dasharray:none;stroke-opacity:1"
         d="m 150.31518,169.07529 -17.31979,21.95658"
         id="path1168" /></g></g></svg>
