<?xml version="1.0" encoding="UTF-8" standalone="no"?>
<!-- Created with Inkscape (http://www.inkscape.org/) -->

<svg
   width="210mm"
   height="210mm"
   viewBox="0 0 210 210"
   version="1.1"
   id="svg5"
   xml:space="preserve"
   inkscape:version="1.2.2 (732a01da63, 2022-12-09, custom)"
   sodipodi:docname="mascot.svg"
   xmlns:inkscape="http://www.inkscape.org/namespaces/inkscape"
   xmlns:sodipodi="http://sodipodi.sourceforge.net/DTD/sodipodi-0.dtd"
   xmlns="http://www.w3.org/2000/svg"
   xmlns:svg="http://www.w3.org/2000/svg"><sodipodi:namedview
     id="namedview7"
     pagecolor="#ffffff"
     bordercolor="#000000"
     borderopacity="0.25"
     inkscape:showpageshadow="2"
     inkscape:pageopacity="0.0"
     inkscape:pagecheckerboard="0"
     inkscape:deskcolor="#d1d1d1"
     inkscape:document-units="mm"
     showgrid="false"
     inkscape:zoom="0.49638341"
     inkscape:cx="-114.83059"
     inkscape:cy="464.3588"
     inkscape:window-width="1920"
     inkscape:window-height="1016"
     inkscape:window-x="0"
     inkscape:window-y="0"
     inkscape:window-maximized="1"
     inkscape:current-layer="layer1"
     showguides="true" /><defs
     id="defs2" /><g
     inkscape:label="Layer 1"
     inkscape:groupmode="layer"
     id="layer1"><path
       style="fill:#ff5555;fill-opacity:1;stroke:none;stroke-width:1.5;stroke-linejoin:bevel;stroke-dasharray:none;stroke-opacity:1"
       d="m 104.67118,46.83099 c 0,0 -40.467,-20.255881 -65.124479,44.225217 0,0 -5.992334,17.869773 10.849916,28.530223 0,0 5.459312,12.54371 -10.364782,23.15002 0,0 -9.068664,11.91804 4.908592,21.94136 0,0 23.685129,5.80286 19.519853,19.72286 0,0 -0.302948,6.93137 -8.279541,10.94361 0,0 26.209697,-6.31923 20.992951,-26.84995"
       id="path1936" /><rect
       style="fill:#000000;stroke:#000000;stroke-width:1.26849;stroke-linejoin:bevel;stroke-dasharray:none;stroke-opacity:1"
       id="rect1619"
       width="16.92514"
       height="4.4466519"
       x="95.128387"
       y="159.16245" /><rect
       style="fill:#ffffff;stroke:#000000;stroke-width:0.935295;stroke-linejoin:bevel;stroke-dasharray:none;stroke-opacity:1"
       id="rect1619-1"
       width="8.6874599"
       height="4.7097292"
       x="99.291679"
       y="159.25439" /><path
       style="fill:none;stroke-width:0.499999"
       d="m 61.762861,106.49881 c 0,0 2.015551,52.13047 11.659717,57.62723"
       id="path401" /><path
       style="fill:#ff5555;fill-opacity:1;stroke:none;stroke-width:1.48493;stroke-linejoin:bevel;stroke-dasharray:none;stroke-opacity:1"
       d="m 103.23346,46.540717 c 0,0 39.55389,-20.309217 63.65499,44.341665 0,0 5.85712,17.916828 -10.6051,28.605348 0,0 -5.33612,12.57674 10.13091,23.21098 0,0 8.86404,11.94942 -4.79783,21.99913 0,0 -23.15069,5.81814 -19.0794,19.77479 0,0 0.29611,6.94962 8.09272,10.97243 0,0 -25.6183,-6.33587 -20.51926,-26.92065"
       id="path1936-8" /><ellipse
       style="fill:#ffffff;fill-opacity:1;stroke:none;stroke-width:1.4306;stroke-linejoin:bevel;stroke-dasharray:none;stroke-opacity:1"
       id="path2189"
       cx="103.52862"
       cy="125.40009"
       rx="41.858372"
       ry="55.70327" /><circle
       style="fill:none;stroke:#000000;stroke-width:3;stroke-dasharray:none;stroke-opacity:1"
       id="path1092"
       cx="83.883308"
       cy="132.79329"
       r="13.192298" /><circle
       style="fill:none;stroke:#000000;stroke-width:3;stroke-dasharray:none;stroke-opacity:1"
       id="path1092-6"
       cx="122.89491"
       cy="132.9099"
       r="13.192298" /><path
       style="fill:none;stroke:#000000;stroke-width:3;stroke-dasharray:none;stroke-opacity:1"
       d="m 96.327567,134.69996 c 0,0 6.309823,-6.81924 13.835743,0.24403"
       id="path1121" /><path
       style="fill:none;stroke:#000000;stroke-width:2;stroke-dasharray:none;stroke-opacity:1"
       d="m 74.037991,135.81557 c 0,0 7.794984,-13.18978 17.085804,-1.57165"
       id="path1123" /><path
       style="fill:none;stroke:#000000;stroke-width:2;stroke-dasharray:none;stroke-opacity:1"
       d="m 77.83868,132.54196 -3.795903,-3.15105"
       id="path1125" /><path
       style="fill:none;stroke:#000000;stroke-width:2;stroke-dasharray:none;stroke-opacity:1"
       d="m 79.885518,130.49807 -2.410121,-4.74479"
       id="path1127" /><path
       style="fill:none;stroke:#000000;stroke-width:2;stroke-dasharray:none;stroke-opacity:1"
       d="m 83.316296,129.48808 -0.0011,-6.17179"
       id="path1129" /><path
       style="fill:none;stroke:#000000;stroke-width:2;stroke-dasharray:none;stroke-opacity:1"
       d="M 88.240702,130.68615 90.6269,126.1773"
       id="path1131" /><circle
       style="fill:#000000;stroke:#000000;stroke-width:2;stroke-dasharray:none;stroke-opacity:1"
       id="path1133"
       cx="83.139992"
       cy="134.01718"
       r="2.7726705" /><path
       style="fill:none;stroke:#000000;stroke-width:2;stroke-dasharray:none;stroke-opacity:1"
       d="m 132.40104,135.72164 c 0,0 -7.79498,-13.18978 -17.0858,-1.57165"
       id="path1123-9" /><path
       style="fill:none;stroke:#000000;stroke-width:2;stroke-dasharray:none;stroke-opacity:1"
       d="m 128.60035,132.44803 3.79591,-3.15105"
       id="path1125-3" /><path
       style="fill:none;stroke:#000000;stroke-width:2;stroke-dasharray:none;stroke-opacity:1"
       d="m 126.55352,130.40414 2.41012,-4.74479"
       id="path1127-6" /><path
       style="fill:none;stroke:#000000;stroke-width:2;stroke-dasharray:none;stroke-opacity:1"
       d="m 123.12274,129.39415 0.001,-6.17179"
       id="path1129-0" /><path
       style="fill:none;stroke:#000000;stroke-width:2;stroke-dasharray:none;stroke-opacity:1"
       d="m 118.19833,130.59222 -2.3862,-4.50885"
       id="path1131-6" /><circle
       style="fill:#000000;stroke:#000000;stroke-width:2;stroke-dasharray:none;stroke-opacity:1"
       id="path1133-2"
       cx="-123.29905"
       cy="133.92325"
       r="2.7726705"
       transform="scale(-1,1)" /><path
       style="fill:none;stroke:#000000;stroke-width:1.5;stroke-dasharray:none;stroke-opacity:1"
       d="m 82.977304,155.60669 6.408097,3.3406 c 0,0 3.151783,2.51318 14.072779,1.5908"
       id="path1300" /><path
       style="fill:none;stroke:#000000;stroke-width:1.5;stroke-dasharray:none;stroke-opacity:1"
       d="m 123.73071,155.58684 -6.40809,3.3406 c 0,0 -3.15179,2.51318 -14.07278,1.5908"
       id="path1300-6" /><path
       style="fill:#ff5555;stroke:#000000;stroke-width:1.5;stroke-dasharray:none;stroke-opacity:1;stroke-linejoin:bevel"
       d="m 89.663012,159.12714 9.266203,-4.04035 4.736295,1.94157 3.94067,-1.78593 9.31019,3.70981 c 0,0 -14.90484,4.24752 -27.253358,0.1749 z"
       id="path1357" /><path
       style="fill:none;stroke:#000000;stroke-width:1.5;stroke-dasharray:none;stroke-opacity:1"
       d="m 91.846372,160.2848 c 0,0 8.615798,9.26126 24.942468,-0.58352"
       id="path1413" /><path
       style="fill:#ff5555;stroke:#000000;stroke-width:1.5;stroke-dasharray:none;stroke-opacity:1"
       d="m 116.12568,158.01452 c 0,0 -4.67331,6.59691 -4.42892,9.62587 0,0 -6.90248,6.32366 -16.419577,0.31233 0,0 -0.675127,-5.02493 -3.144518,-6.96495 -0.06377,0.12352 -0.106982,-0.93306 0.163462,-0.71148 5.293871,4.33725 15.023543,7.31233 23.829553,-2.26177 z"
       id="path1415"
       sodipodi:nodetypes="ccccsc" /><path
       style="fill:none;stroke:#000000;stroke-width:1.5;stroke-linejoin:bevel;stroke-dasharray:none;stroke-opacity:1"
       d="m 98.795106,147.00324 c 0,0 3.139824,6.33908 8.874714,0.0847"
       id="path1785" /><path
       style="fill:none;stroke:#000000;stroke-width:1.5;stroke-linejoin:bevel;stroke-dasharray:none;stroke-opacity:1"
       d="m 106.08418,148.43172 c 0,0 1.98095,2.7528 4.05558,0.16048"
       id="path1787" /><path
       style="fill:none;stroke:#000000;stroke-width:1.5;stroke-linejoin:bevel;stroke-dasharray:none;stroke-opacity:1"
       d="m 99.675163,148.02206 c 0,0 -2.025859,3.00142 -4.262435,0.4645"
       id="path1789" /><ellipse
       style="fill:#ff5555;fill-opacity:1;stroke:#000000;stroke-width:1.5;stroke-linejoin:bevel;stroke-dasharray:none;stroke-opacity:1"
       id="path2056"
       cx="61.616108"
       cy="62.570232"
       rx="28.043003"
       ry="27.078461" /><ellipse
       style="fill:#ff5555;fill-opacity:1;stroke:#000000;stroke-width:1.5;stroke-linejoin:bevel;stroke-dasharray:none;stroke-opacity:1"
       id="path2056-7"
       cx="149.3857"
       cy="62.389614"
       rx="28.043003"
       ry="27.078461" /><path
       style="fill:#ff5555;fill-opacity:1;stroke:none;stroke-width:1.63325;stroke-linejoin:bevel;stroke-dasharray:none;stroke-opacity:1"
       d="m 111.67946,49.993162 c 0,0 -41.534795,-1.795812 -51.844634,26.644302 0,0 -13.788004,43.987646 42.772324,39.450076 0,0 -9.722392,-10.87179 7.46892,-9.47527 0,0 6.37731,13.29305 26.33444,8.57411 0,0 -14.53088,-5.66431 -3.86651,-11.44991 0,0 6.08824,-1.89415 8.67386,5.92843 0,0 6.93668,0.26737 13.38767,-0.313 0,0 -21.07125,-3.7264 -6.90312,-17.323229 0,0 12.05252,-13.412973 -0.79052,-28.079459 0,0 -11.5506,-13.91281 -35.23243,-13.95605 z"
       id="path1791"
       sodipodi:nodetypes="ccccccccccc" /><path
       style="fill:none;fill-opacity:1;stroke:#000000;stroke-width:2;stroke-linejoin:bevel;stroke-dasharray:none;stroke-opacity:1"
       d="m 71.374637,81.118918 c 0,0 -4.503703,25.485892 27.750261,28.244952"
       id="path2317" /><path
       style="fill:none;fill-opacity:1;stroke:#000000;stroke-width:2;stroke-linejoin:bevel;stroke-dasharray:none;stroke-opacity:1"
       d="m 96.386429,49.827157 c 0,0 -18.318469,35.358522 31.157851,55.603993"
       id="path2335" /><path
       style="fill:none;fill-opacity:1;stroke:#000000;stroke-width:2;stroke-linejoin:bevel;stroke-dasharray:none;stroke-opacity:1"
       d="m 123.98906,59.369502 c 0,0 -15.33896,24.534632 19.39805,43.237258"
       id="path2337" /><path
       style="fill:none;fill-opacity:1;stroke:#000000;stroke-width:2;stroke-linejoin:bevel;stroke-dasharray:none;stroke-opacity:1"
       d="m 72.356709,64.799664 c 0,0 1.414801,-11.783745 -15.561746,-17.646988"
       id="path2339" /><path
       style="fill:none;fill-opacity:1;stroke:#000000;stroke-width:2;stroke-linejoin:bevel;stroke-dasharray:none;stroke-opacity:1"
       d="M 65.054723,68.141463 48.756948,52.687987"
       id="path2341" /><path
       style="fill:none;fill-opacity:1;stroke:#000000;stroke-width:2;stroke-linejoin:bevel;stroke-dasharray:none;stroke-opacity:1"
       d="m 61.310035,77.068541 c 0,0 -16.938027,4.021611 -18.336167,-22.652397"
       id="path2343" /><path
       style="fill:none;fill-opacity:1;stroke:#000000;stroke-width:2;stroke-linejoin:bevel;stroke-dasharray:none;stroke-opacity:1"
       d="m 151.70205,94.599973 c 0,0 11.41521,6.051677 -0.28213,26.768747 0,0 -12.10959,21.52597 6.4452,29.51402 0,0 10.37311,8.33471 -5.54572,12.76026"
       id="path2349" /><path
       style="fill:none;fill-opacity:1;stroke:#000000;stroke-width:2;stroke-linejoin:bevel;stroke-dasharray:none;stroke-opacity:1"
       d="m 59.605822,97.243221 c 0,0 -14.736188,4.597319 -2.432955,26.922819 0,0 8.880233,20.03102 -10.912377,26.63029"
       id="path2351" /><path
       style="fill:none;fill-opacity:1;stroke:#000000;stroke-width:2;stroke-linejoin:bevel;stroke-dasharray:none;stroke-opacity:1"
       d="m 150.52461,46.725842 c 0,0 21.99861,3.401139 11.58282,28.724894"
       id="path2353" /><path
       style="fill:none;fill-opacity:1;stroke:#000000;stroke-width:2;stroke-linejoin:bevel;stroke-dasharray:none;stroke-opacity:1"
       d="m 158.42104,57.405023 c 0,0 6.60864,20.708742 -14.99228,18.476711"
       id="path2355" /></g></svg>
